<?xml version="1.0" standalone="no"?>
<!DOCTYPE svg PUBLIC "-//W3C//DTD SVG 20010904//EN"
 "http://www.w3.org/TR/2001/REC-SVG-20010904/DTD/svg10.dtd">
<svg version="1.0" xmlns="http://www.w3.org/2000/svg"
 width="260.000000pt" height="260.000000pt" viewBox="0 0 260.000000 260.000000"
 preserveAspectRatio="xMidYMid meet">
<metadata>
Created by potrace 1.11, written by Peter Selinger 2001-2013
</metadata>
<g transform="translate(0.000000,260.000000) scale(0.100000,-0.100000)"
fill="#000000" stroke="none">
<path d="M1328 2579 c13 -15 19 -16 31 -6 14 11 14 10 2 -6 -12 -15 -16 -16
-30 -3 -10 9 -22 12 -30 7 -9 -6 -10 -11 -2 -15 6 -4 8 -13 4 -19 -10 -16 -13
-38 -4 -33 4 3 7 -4 8 -14 1 -11 -2 -22 -8 -25 -5 -3 -6 0 -3 8 3 8 -2 17 -12
21 -14 5 -15 4 -4 -9 10 -12 10 -15 -1 -15 -9 0 -10 -3 -4 -8 20 -14 35 -51
24 -58 -6 -3 -8 -17 -4 -31 4 -16 2 -22 -4 -18 -7 4 -8 -1 -4 -11 5 -13 3 -15
-8 -9 -9 5 -8 1 3 -10 15 -16 19 -16 35 -4 16 12 16 11 -1 -8 -10 -13 -23 -20
-29 -16 -6 3 -7 1 -3 -6 4 -6 13 -8 19 -4 7 4 6 0 -2 -10 -10 -12 -10 -21 -3
-30 8 -9 8 -17 0 -27 -8 -12 -9 -11 -4 4 5 13 2 17 -8 13 -8 -3 -17 -1 -20 6
-3 7 -3 1 1 -13 5 -23 5 -24 -12 -10 -17 14 -18 14 -5 -10 l13 -25 -22 19
c-11 11 -24 16 -28 13 -3 -4 -2 -7 3 -7 5 0 10 -9 11 -20 1 -11 -2 -18 -7 -15
-4 3 -10 -2 -14 -10 -3 -8 -1 -17 4 -20 13 -8 0 -36 -14 -29 -6 3 -1 -4 12
-15 30 -26 29 -25 13 -44 -7 -10 -10 -17 -6 -17 4 0 2 -6 -4 -14 -9 -11 -9
-16 0 -22 9 -5 5 -10 -12 -17 -13 -6 -27 -9 -31 -9 -4 1 -4 -6 -1 -16 6 -15 5
-16 -12 -2 -17 14 -18 14 -6 -8 9 -18 9 -22 -1 -20 -6 2 -13 -3 -14 -9 -1 -7
-3 -16 -4 -20 -1 -5 -2 -12 -1 -16 1 -5 -3 -6 -8 -3 -5 4 -11 1 -13 -4 -2 -6
-20 -12 -41 -14 -21 -2 -41 -7 -45 -12 -4 -4 0 -5 9 -1 13 4 16 -1 15 -24 -1
-34 0 -33 -17 -12 -12 14 -12 16 0 8 9 -5 12 -4 7 3 -11 18 -35 3 -31 -19 2
-11 0 -17 -6 -14 -5 4 -23 -4 -40 -15 -16 -12 -33 -20 -36 -17 -2 3 9 13 25
21 17 9 34 21 38 27 3 6 -6 3 -22 -7 -53 -33 -55 -35 -42 -51 9 -12 7 -13 -16
-9 -14 3 -24 1 -21 -4 3 -4 -1 -11 -7 -14 -7 -3 -2 -4 12 -1 l25 5 -26 -13
c-15 -6 -27 -15 -27 -20 -1 -22 -9 -29 -15 -13 -5 11 -3 15 5 10 7 -5 8 -3 4
5 -9 13 -21 6 -21 -12 0 -7 -9 -11 -20 -9 -16 2 -17 1 -5 -7 8 -5 18 -7 22 -5
4 3 5 -2 2 -10 -3 -8 -12 -12 -20 -9 -10 4 -12 0 -7 -13 6 -17 5 -17 -10 -5
-16 13 -17 12 -7 -15 6 -16 8 -25 4 -22 -13 13 -46 -13 -41 -32 3 -14 1 -17
-11 -13 -10 4 -13 2 -8 -5 4 -7 2 -12 -4 -12 -6 0 -9 -4 -6 -9 4 -5 0 -12 -6
-14 -10 -4 -10 -6 0 -6 15 -1 16 -31 1 -31 -5 0 -8 -3 -6 -7 3 -5 1 -17 -4
-28 -7 -18 -8 -17 -6 5 1 14 6 31 10 38 5 7 4 12 -2 12 -10 0 -15 -14 -12 -32
0 -5 -3 -8 -9 -8 -6 0 -6 -9 1 -26 5 -15 7 -29 4 -32 -3 -3 -5 0 -5 6 0 6 -10
9 -21 7 -29 -6 -33 -11 -14 -19 11 -4 14 -2 9 6 -4 7 -3 8 4 4 16 -10 -2 -51
-22 -50 -13 2 -14 -1 -5 -12 6 -8 16 -11 23 -8 6 3 0 -4 -13 -15 -21 -19 -20
-26 2 -22 5 1 5 -3 2 -9 -4 -6 -14 -9 -22 -6 -13 5 -13 2 2 -20 9 -15 13 -24
7 -20 -5 3 -13 -1 -16 -10 -3 -9 -11 -12 -18 -8 -9 5 -9 3 1 -9 11 -14 11 -17
-1 -17 -8 0 -20 6 -28 13 -12 10 -12 9 -1 -5 9 -12 10 -18 2 -18 -6 0 -11 -5
-11 -11 0 -8 4 -8 14 0 10 8 16 9 21 1 4 -6 1 -9 -7 -8 -7 2 -12 -2 -11 -9 2
-8 -4 -10 -15 -6 -13 5 -14 3 -5 -7 14 -15 7 -40 -10 -36 -7 1 -9 1 -4 -1 4
-3 4 -10 1 -15 -4 -6 -2 -8 3 -5 6 4 11 -4 11 -18 0 -14 -4 -22 -9 -19 -5 3
-9 1 -9 -5 0 -5 6 -11 13 -14 9 -3 9 -8 -2 -18 -12 -12 -13 -12 -6 0 6 10 4
12 -4 7 -7 -5 -10 -14 -7 -22 3 -9 0 -11 -11 -7 -11 4 -14 2 -9 -5 5 -8 2 -10
-8 -6 -9 3 -13 11 -9 17 3 6 1 7 -6 3 -8 -6 -9 -11 -1 -21 8 -9 5 -11 -14 -8
-13 3 -27 -1 -31 -8 -6 -9 -3 -11 8 -6 9 3 19 2 22 -2 8 -14 -32 -20 -46 -7
-11 9 -11 8 -1 -5 6 -9 8 -20 4 -25 -4 -4 0 -3 10 4 12 10 18 10 24 1 4 -8 3
-9 -4 -5 -20 12 -28 -45 -8 -60 13 -9 14 -13 4 -16 -7 -3 -13 -11 -14 -19 -3
-44 -5 -50 -14 -44 -6 4 -7 -1 -3 -11 4 -11 8 -13 11 -6 2 7 8 12 14 12 5 0 7
-9 3 -20 -5 -15 -3 -18 9 -14 11 4 16 0 16 -12 0 -16 2 -17 10 -4 5 8 10 10
10 4 0 -5 -6 -16 -12 -23 -11 -11 -10 -13 3 -8 24 8 39 -6 32 -31 -3 -12 -10
-19 -16 -15 -6 3 -7 1 -3 -5 4 -6 14 -8 24 -5 14 5 13 2 -3 -13 -12 -10 -16
-16 -9 -11 8 5 10 -10 7 -59 -3 -49 -1 -64 8 -58 8 5 9 3 4 -7 -12 -18 -14
-49 -3 -49 4 0 8 -5 8 -11 0 -5 -4 -8 -9 -4 -5 3 -13 0 -17 -7 -4 -7 -4 -10 1
-6 4 4 17 1 29 -7 11 -8 29 -15 39 -15 17 0 18 2 6 18 -13 16 -12 16 4 3 18
-14 18 -16 1 -28 -9 -7 -22 -9 -28 -5 -17 10 -35 11 -41 2 -3 -5 3 -7 12 -5
20 3 43 -12 43 -28 0 -6 -3 -7 -7 -4 -3 4 -12 2 -19 -3 -6 -6 -16 -10 -20 -9
-23 4 -45 -2 -39 -10 3 -5 0 -13 -6 -17 -8 -4 -9 -3 -5 4 4 7 3 12 -3 12 -6 0
-9 6 -7 13 1 6 1 9 -1 4 -3 -4 -10 -4 -15 -1 -7 4 -8 2 -4 -4 4 -7 2 -12 -4
-12 -6 0 -9 -4 -6 -9 4 -5 -3 -7 -13 -4 -11 3 -22 12 -24 22 -4 14 -5 14 -6
-1 -1 -23 -18 -23 -24 -1 -4 17 -5 17 -6 0 -1 -11 -6 -16 -14 -12 -6 4 -4 0 5
-7 15 -13 15 -15 -5 -28 -21 -12 -21 -12 -7 5 14 17 13 18 -3 12 -15 -6 -17
-3 -12 15 6 18 5 19 -7 7 -19 -17 -26 -263 -9 -274 6 -3 11 -12 11 -18 0 -7
-4 -6 -10 3 -8 12 -10 11 -10 -7 l0 -22 470 0 c458 0 470 0 460 19 -13 25 -13
33 3 24 9 -6 9 -5 0 7 -10 12 -10 18 0 29 10 12 9 12 -6 1 -14 -11 -17 -11
-17 -1 0 8 -3 10 -6 7 -4 -4 -2 -13 4 -20 9 -10 8 -18 -4 -33 -14 -18 -15 -18
-4 4 6 12 8 23 5 23 -3 1 -9 2 -15 3 -5 0 -17 11 -26 24 -13 18 -19 21 -30 11
-8 -6 -17 -9 -21 -5 -3 3 -1 6 6 6 7 0 9 5 5 12 -5 7 -11 5 -21 -7 -7 -11 -13
-14 -13 -8 0 7 5 15 10 18 6 4 3 13 -8 23 -10 9 -12 13 -5 8 7 -5 13 -5 13 -1
0 4 9 -3 20 -16 10 -13 19 -19 20 -13 0 5 -5 15 -11 21 -9 9 -6 10 11 6 16 -4
21 -3 16 5 -5 8 -1 10 10 5 11 -4 15 -3 10 5 -3 6 -1 14 5 18 7 4 9 3 5 -4
-11 -18 14 -25 33 -8 10 9 21 13 26 9 4 -5 5 0 2 10 -4 11 -1 17 9 17 9 0 12
-5 8 -12 -5 -7 -3 -8 6 -3 10 6 9 11 -6 23 -18 13 -18 14 4 7 25 -7 56 11 45
28 -3 6 -1 7 6 3 6 -4 9 -12 6 -17 -4 -5 1 -9 9 -9 9 0 15 3 15 8 -3 19 2 23
16 12 14 -12 15 -10 11 14 -3 14 -1 24 3 21 13 -7 7 -50 -7 -47 -7 1 -12 -2
-12 -8 0 -8 37 -8 48 1 1 1 7 2 12 3 6 0 15 8 20 16 10 16 10 16 14 -18 2 -20
-24 -48 -35 -37 -2 2 -5 -10 -5 -26 -1 -19 2 -26 10 -22 6 3 7 2 3 -3 -5 -5
-12 -9 -16 -9 -14 0 -40 -33 -33 -40 4 -5 1 -5 -6 -1 -11 6 -10 12 4 27 10 11
12 19 6 19 -7 0 -12 -5 -12 -11 0 -5 -4 -8 -8 -5 -9 6 -7 -67 2 -83 4 -5 1
-13 -5 -17 -8 -4 -9 -3 -5 4 4 7 2 12 -4 12 -6 0 -9 4 -5 9 3 5 1 12 -4 16 -6
3 -8 -3 -6 -15 2 -11 -2 -20 -8 -21 -7 0 -3 -4 8 -9 29 -12 218 -10 233 2 6 6
12 16 12 22 0 7 -3 7 -8 1 -4 -5 -11 -11 -17 -12 -5 -1 -19 -5 -30 -8 -15 -6
-14 -3 5 11 14 10 31 25 38 34 8 8 11 10 8 4 -3 -7 0 -14 8 -17 10 -4 12 0 9
14 -5 17 -3 18 21 9 30 -11 32 -8 9 16 -13 13 -14 16 -3 12 8 -3 24 2 34 11
11 9 16 10 12 3 -5 -8 -1 -11 16 -8 13 3 24 5 26 7 1 1 8 2 15 3 6 1 11 7 10
13 -1 5 9 15 23 22 14 6 23 8 21 4 -3 -5 2 -14 9 -21 13 -12 14 -9 9 15 -3 15
-3 23 1 16 3 -7 11 -11 17 -9 7 1 9 1 5 -1 -13 -7 -9 -20 6 -20 9 0 13 9 11
24 -1 13 2 26 8 30 6 3 7 1 3 -5 -8 -13 22 -44 35 -37 5 4 9 1 9 -4 0 -6 8
-11 17 -11 15 0 14 2 -2 14 -11 8 -23 12 -27 10 -5 -3 -8 -1 -8 4 0 6 11 9 24
8 13 0 22 -4 20 -7 -2 -4 3 -9 11 -13 9 -3 12 -12 9 -23 -4 -12 -3 -14 3 -6
13 18 60 24 60 7 0 -9 -4 -10 -12 -4 -6 5 -16 5 -25 -2 -12 -8 -12 -9 2 -4 10
3 20 1 23 -5 4 -5 10 -7 15 -4 5 3 16 -5 24 -17 9 -12 16 -18 16 -12 0 5 -6
19 -14 30 -12 17 -13 21 -1 21 8 0 13 -5 12 -11 -1 -6 5 -9 13 -8 8 2 12 0 8
-4 -5 -4 1 -14 13 -22 16 -11 23 -12 32 -3 9 9 7 11 -8 6 -16 -6 -17 -5 -5 4
9 6 19 6 24 1 4 -4 16 -6 25 -3 13 4 14 3 1 -5 -8 -6 -17 -9 -20 -7 -4 2 -7
-2 -7 -10 0 -10 5 -11 17 -5 12 6 20 3 29 -12 9 -15 10 -18 0 -13 -8 5 -10 4
-5 -3 4 -7 1 -12 -6 -12 -9 0 -9 -3 2 -10 23 -15 167 -13 173 3 4 9 6 9 6 0 1
-16 27 -17 37 -1 5 7 2 9 -8 6 -11 -5 -14 0 -12 19 1 14 5 28 9 31 4 4 5 -2 3
-12 -1 -10 3 -21 10 -23 8 -3 10 2 6 14 -5 17 -4 17 10 -1 23 -28 30 -14 31
60 1 37 -2 60 -6 52 -6 -8 -9 -9 -9 -2 0 7 -9 14 -21 17 -12 3 -18 10 -14 16
9 16 -28 0 -43 -18 -9 -10 -11 -11 -6 -2 4 8 8 24 10 37 2 21 -1 22 -38 19
-35 -3 -39 -1 -35 14 2 11 1 25 -4 32 -5 9 -9 10 -9 2 0 -6 -9 -9 -20 -6 -11
3 -20 9 -20 14 0 5 7 6 15 3 8 -4 15 -1 15 4 0 6 -9 9 -20 7 -11 -2 -20 1 -20
6 0 6 -9 7 -21 4 -13 -4 -19 -3 -16 2 4 6 0 19 -9 29 -14 18 -15 18 -4 -3 6
-13 7 -23 3 -24 -4 0 -19 -2 -33 -5 -18 -3 -21 -2 -10 5 8 5 18 7 22 5 4 -3 8
0 8 6 0 6 -7 10 -16 8 -10 -2 -19 3 -21 10 -3 6 1 10 9 9 7 -2 10 -2 5 0 -4 3
-5 9 -1 14 3 5 0 9 -5 9 -6 0 -11 -5 -11 -11 0 -5 -5 -7 -10 -4 -7 4 -7 12 -2
18 7 11 8 26 3 70 -1 8 -4 8 -10 -3 -6 -8 -7 -18 -5 -22 3 -4 0 -8 -5 -8 -6 0
-11 5 -11 11 0 5 -4 7 -10 4 -6 -3 -7 1 -4 9 3 9 11 13 17 9 6 -3 7 -1 3 5 -4
7 0 12 11 13 14 0 15 2 3 7 -21 10 -25 36 -5 28 9 -3 14 -2 11 3 -3 5 1 12 9
15 13 4 14 10 5 26 -13 24 -7 26 14 5 13 -13 15 -13 21 5 6 19 18 25 40 20 6
-1 7 2 3 6 -4 4 -2 14 5 23 10 14 10 14 -3 4 -13 -10 -18 -8 -30 10 -12 19
-11 21 2 10 8 -7 18 -10 21 -6 4 3 -2 13 -13 20 -11 8 -18 18 -15 23 3 5 -1
15 -10 23 -12 12 -12 17 -1 26 7 6 17 7 21 3 5 -4 5 -1 0 6 -5 10 -10 11 -18
3 -15 -15 -30 -14 -21 1 5 9 2 9 -9 -1 -17 -14 -24 -26 -9 -17 4 2 9 -5 9 -17
2 -19 1 -20 -8 -5 -6 11 -16 15 -27 11 -14 -5 -15 -3 -4 8 15 16 16 29 2 29
-6 0 -9 -6 -8 -13 2 -6 -3 -11 -10 -9 -9 2 -11 -2 -6 -10 12 -19 14 -39 3 -32
-5 3 -7 10 -4 15 4 5 1 9 -4 9 -14 0 -14 -6 -1 -31 9 -16 7 -21 -15 -29 -14
-5 -25 -12 -25 -16 0 -3 7 -4 15 0 11 4 14 -1 13 -19 -1 -14 -8 -27 -16 -30
-8 -3 -10 -10 -5 -17 10 -17 14 -42 5 -33 -4 4 -7 12 -7 18 0 7 -7 12 -15 12
-8 0 -14 -6 -12 -14 3 -12 0 -12 -12 -1 -13 10 -19 10 -31 0 -8 -7 -15 -9 -15
-5 0 5 -8 1 -18 -8 -18 -17 -32 -14 -32 7 0 6 4 5 9 -3 6 -9 11 -10 15 -2 4 6
2 11 -4 11 -6 0 -8 5 -4 11 3 6 -5 3 -20 -6 -24 -16 -31 -14 -27 7 0 5 -3 8
-8 8 -6 0 -9 -9 -8 -19 1 -12 7 -18 18 -16 10 2 20 -3 23 -11 5 -12 2 -12 -17
-3 -12 7 -23 12 -24 11 -2 -1 -3 1 -2 4 0 4 -5 10 -12 15 -10 6 -10 10 0 23
11 13 8 14 -19 11 -17 -2 -29 -1 -26 3 2 4 -3 8 -13 8 -10 0 -18 -6 -18 -12 0
-7 6 -10 13 -7 6 2 15 0 19 -6 3 -7 0 -8 -9 -5 -10 4 -16 1 -16 -7 0 -8 -6 -5
-14 6 -12 16 -16 17 -30 6 -12 -10 -14 -17 -5 -27 8 -10 8 -22 1 -43 -9 -25
-7 -35 12 -63 12 -18 27 -33 33 -33 6 0 15 -4 20 -9 5 -5 2 -6 -6 -1 -9 5 -12
4 -7 -3 4 -7 3 -12 -1 -12 -9 0 -28 21 -56 60 -9 13 -17 20 -17 16 0 -5 12
-25 27 -44 20 -27 22 -34 9 -29 -9 4 -15 3 -12 -2 12 -19 57 -7 88 23 18 17
40 30 48 28 13 -2 13 -2 0 7 -11 8 -22 4 -42 -16 -25 -23 -27 -24 -25 -6 0 11
8 20 17 19 8 -1 14 4 13 10 -1 6 10 10 25 9 15 -1 32 2 39 7 7 5 14 5 18 -2 4
-6 1 -9 -6 -8 -6 2 -14 -3 -16 -10 -3 -7 1 -10 9 -7 9 4 15 0 15 -10 0 -8 -4
-15 -9 -15 -5 0 -6 -5 -2 -11 5 -8 9 -8 14 1 6 9 9 9 16 -1 11 -19 14 -60 4
-54 -5 3 -18 1 -29 -4 -14 -8 -21 -7 -25 2 -3 6 -4 -1 -1 -18 4 -22 3 -26 -4
-15 -8 11 -13 12 -22 3 -16 -16 -49 5 -41 26 5 13 4 14 -10 1 -8 -8 -13 -21
-11 -27 3 -7 0 -13 -7 -13 -6 0 -8 5 -5 10 3 6 2 10 -4 10 -6 0 -8 7 -5 15 4
8 11 12 18 8 6 -3 7 -2 3 2 -14 16 -36 14 -30 -3 5 -11 3 -13 -7 -7 -8 5 -11
4 -6 -3 3 -5 3 -12 -1 -15 -5 -2 -3 -3 3 -1 6 1 11 -4 11 -11 0 -10 -5 -11
-19 -4 -10 6 -16 14 -13 20 4 5 1 9 -5 9 -6 0 -8 5 -4 12 4 6 3 8 -4 4 -6 -3
-9 -16 -7 -28 3 -11 2 -18 -2 -14 -3 3 -12 1 -20 -5 -7 -6 -13 -8 -13 -4 0 4
8 14 18 21 11 9 13 13 4 14 -7 0 -10 5 -6 12 4 7 3 8 -5 4 -6 -4 -9 -11 -6
-16 3 -4 -2 -11 -11 -14 -12 -5 -15 -2 -10 10 5 14 4 15 -9 4 -12 -10 -13 -16
-3 -29 12 -14 11 -14 -4 -3 -10 8 -16 19 -15 25 1 7 -6 11 -17 9 -13 -2 -16 1
-10 10 6 10 5 10 -7 2 -11 -9 -17 -9 -27 2 -10 10 -10 14 -1 14 7 0 9 3 6 6
-4 4 -13 1 -21 -5 -11 -10 -17 -7 -30 11 -9 12 -16 18 -16 12 0 -6 -7 -11 -15
-11 -8 0 -15 4 -15 9 0 8 22 12 48 9 7 -1 15 5 18 14 3 8 11 15 16 15 6 0 6
-6 -1 -14 -8 -9 -8 -16 -2 -20 5 -4 12 -2 16 4 3 5 3 10 -1 10 -3 0 -1 7 6 15
7 8 9 15 4 15 -5 0 -2 5 6 11 13 9 13 10 0 6 -8 -2 -14 -10 -12 -16 1 -7 -2
-10 -8 -6 -12 8 10 45 27 45 7 0 13 4 13 10 0 5 -7 7 -15 4 -13 -5 -13 -3 -1
21 15 28 11 59 -5 49 -5 -3 -9 2 -9 11 0 9 5 13 10 10 6 -3 10 -2 10 3 0 14
-27 22 -47 16 -15 -5 -16 -4 -3 5 13 9 13 11 0 12 -8 1 -20 1 -27 0 -6 -1 -15
4 -19 10 -5 8 -2 10 8 7 8 -4 21 -2 29 3 12 7 11 10 -3 21 -13 10 -15 17 -7
28 9 13 10 12 5 -3 -5 -17 5 -23 18 -9 4 4 11 7 14 7 4 1 18 7 30 14 l24 13
-23 24 c-12 13 -26 21 -30 18 -5 -3 -7 1 -6 8 2 7 2 10 0 6 -3 -5 -14 -8 -24
-8 -14 0 -18 -4 -13 -12 6 -10 4 -10 -8 0 -11 9 -18 9 -21 2 -3 -6 -4 -5 -2 2
1 7 8 12 14 10 6 -1 11 2 11 8 0 13 -6 13 -33 -2 -20 -10 -21 -10 -8 6 12 14
12 16 -3 10 -9 -3 -16 -11 -16 -17 0 -6 -3 -7 -7 -4 -3 4 -12 2 -20 -5 -10 -8
-12 -8 -8 4 4 9 0 15 -9 15 -8 0 -12 -5 -9 -11 4 -6 -1 -5 -10 3 -10 8 -17 9
-17 3 0 -6 -11 -9 -26 -6 -18 3 -23 1 -18 -7 4 -8 3 -9 -5 -5 -6 4 -9 11 -6
16 3 4 -3 14 -13 21 -15 13 -16 12 -3 -3 16 -21 5 -23 -30 -4 -21 11 -26 11
-26 0 0 -7 3 -11 7 -9 3 2 12 0 19 -4 8 -5 -8 -8 -35 -6 -27 1 -57 -2 -66 -7
-14 -7 -16 -5 -11 9 5 14 4 16 -8 7 -12 -9 -33 -11 -41 -4 -10 7 -39 7 -44 -1
-3 -5 -10 -7 -15 -3 -5 3 -6 10 -3 16 4 7 2 8 -5 4 -6 -4 -9 -11 -6 -16 3 -5
0 -12 -6 -16 -7 -4 -9 -3 -5 4 3 6 2 13 -4 17 -5 3 -10 1 -10 -4 0 -6 -9 -11
-20 -11 -11 0 -20 6 -20 14 0 8 -4 18 -10 21 -6 4 -7 -1 -3 -12 6 -17 5 -17
-14 -1 -24 22 -29 22 -37 2 -5 -13 -3 -14 6 -7 9 7 19 4 32 -10 19 -20 19 -20
0 -12 -10 4 -31 8 -46 9 -17 1 -24 4 -18 10 20 20 9 26 -12 6 -24 -23 -42 -26
-35 -7 2 6 9 12 15 12 5 0 14 3 18 7 3 4 -3 6 -14 3 -13 -2 -26 3 -32 13 -5 9
-10 12 -10 6 0 -5 5 -15 12 -22 9 -9 9 -12 -1 -12 -7 0 -9 -5 -5 -12 4 -7 3
-8 -5 -4 -6 4 -9 11 -6 16 6 10 -16 26 -35 25 -8 0 -21 5 -27 12 -15 14 -17
27 -3 18 6 -3 10 -1 10 5 0 7 -8 9 -21 5 -14 -5 -19 -3 -15 3 3 6 2 13 -3 17
-7 3 -7 15 -1 29 5 13 6 27 2 30 -3 4 5 3 18 -3 14 -5 24 -14 22 -21 -1 -6 3
-8 9 -5 8 5 8 10 0 18 -15 15 -14 24 4 24 8 0 12 -4 10 -8 -3 -4 2 -9 10 -13
8 -3 14 -2 12 2 -1 4 3 7 8 8 6 0 9 -7 7 -18 -2 -10 2 -18 8 -18 6 0 8 4 5 10
-3 6 1 7 10 4 14 -6 14 -9 -2 -27 -11 -12 -12 -17 -4 -12 11 6 13 4 8 -9 -4
-11 -3 -15 4 -11 6 4 8 13 5 21 -3 8 -1 14 4 14 10 0 14 -15 10 -35 -1 -5 2
-7 6 -2 4 4 16 0 26 -10 11 -9 18 -11 18 -5 0 7 -4 12 -10 12 -5 0 -7 7 -4 15
6 14 8 14 18 1 11 -15 47 -17 46 -3 0 4 0 10 0 13 0 4 -6 1 -14 -5 -10 -8 -16
-9 -21 -1 -7 12 -9 11 33 15 22 2 30 0 26 -8 -3 -7 2 -3 11 8 9 11 23 19 32
17 8 -2 13 1 9 6 -3 5 5 8 17 7 12 -1 27 2 34 7 7 6 14 4 19 -3 4 -7 3 -9 -3
-6 -5 3 -10 0 -10 -8 0 -10 6 -9 25 6 23 18 25 18 38 2 12 -17 13 -17 19 0 7
16 10 14 32 -10 14 -16 22 -22 18 -14 -6 10 -4 12 6 5 8 -5 17 -9 22 -9 8 0 8
-18 0 -25 -4 -3 -3 2 2 10 5 8 4 12 0 7 -5 -4 -10 -14 -11 -23 -2 -11 1 -12
10 -5 14 12 26 5 22 -12 -2 -7 -1 -8 2 -4 2 4 10 3 17 -3 10 -9 13 -7 10 7 -1
10 -8 17 -14 15 -6 -1 -11 3 -11 9 0 5 10 9 23 7 16 -2 21 1 19 14 -2 12 2 16
13 12 9 -4 15 0 15 9 0 9 5 19 12 23 6 4 8 3 5 -3 -4 -6 2 -13 13 -16 11 -3
18 -1 15 3 -3 5 -1 11 5 15 5 3 10 1 10 -4 0 -6 8 -11 19 -11 10 0 25 -8 32
-17 13 -17 13 -17 -6 -3 -19 14 -19 14 -6 -3 8 -10 20 -16 27 -13 19 7 27 -11
9 -21 -12 -7 -11 -11 8 -22 20 -13 21 -13 8 2 -15 18 -2 23 17 7 9 -7 9 -7 2
2 -14 17 -12 25 5 25 8 0 11 -5 8 -10 -3 -6 -1 -7 5 -3 5 3 13 0 16 -6 3 -7 3
-3 0 10 -3 12 -1 22 5 22 6 0 11 8 11 18 0 15 2 15 11 2 8 -12 10 -9 6 13 -3
22 -2 25 9 16 8 -6 12 -15 9 -19 -3 -5 -1 -11 4 -15 6 -3 8 6 5 20 -4 22 -2
24 9 13 8 -7 12 -20 9 -28 -5 -13 -3 -13 11 -1 10 8 20 11 24 7 3 -3 1 -6 -5
-6 -7 0 -5 -8 5 -19 9 -11 20 -18 24 -15 5 2 15 -6 24 -20 14 -22 63 -46 49
-25 -3 5 -11 9 -19 9 -14 0 -13 36 1 49 4 3 4 -2 1 -11 -4 -12 0 -21 13 -28
24 -13 40 -13 18 1 -14 8 -16 13 -6 29 11 17 13 17 25 2 12 -16 12 -16 13 0 0
9 4 19 9 22 5 4 7 -3 4 -14 -3 -12 -2 -20 3 -18 5 1 18 -3 29 -9 11 -6 24 -11
28 -11 5 0 11 -3 14 -6 3 -3 -4 -4 -15 -1 -12 2 -24 0 -26 -4 -3 -4 6 -7 20
-7 14 1 29 8 34 16 8 12 10 12 10 1 0 -8 7 -11 20 -8 11 3 23 1 26 -4 3 -5 10
-9 15 -9 6 0 8 4 5 8 -3 5 1 9 9 9 8 0 12 -4 9 -8 -2 -4 1 -11 7 -15 8 -5 9
-3 4 6 -6 10 -4 12 7 7 12 -4 15 0 14 18 -2 16 1 22 11 18 9 -4 12 0 8 13 -4
12 -1 11 6 -3 7 -13 16 -23 22 -23 6 0 6 5 0 12 -11 15 -11 38 0 38 4 0 14 0
22 0 9 0 12 -6 9 -18 -5 -13 -4 -14 4 -3 5 7 7 21 5 31 -3 10 3 31 12 46 11
19 12 23 2 11 -13 -16 -15 -16 -21 -1 -8 22 -8 26 4 19 6 -4 7 1 3 11 -4 11
-8 13 -11 6 -2 -7 -9 -9 -14 -6 -6 4 -17 -1 -25 -11 -7 -11 -13 -14 -13 -8 0
6 7 16 15 23 8 7 15 17 15 23 0 5 -12 -3 -27 -19 -15 -16 -24 -21 -20 -12 4
12 0 19 -14 23 -20 7 -20 7 -2 20 16 12 16 13 1 12 -9 -1 -17 3 -18 8 -1 6 -9
19 -18 30 -9 11 -23 31 -30 44 -13 21 -12 23 3 17 9 -3 18 -6 21 -6 2 0 1 -6
-2 -13 -2 -7 4 -21 14 -30 18 -17 20 -17 33 0 13 16 12 17 -3 5 -11 -9 -18
-10 -23 -2 -3 5 -2 10 4 10 6 0 7 8 4 17 -6 15 -4 16 8 6 11 -9 14 -7 15 12 2
21 0 22 -13 10 -8 -8 -20 -15 -26 -15 -8 0 -7 4 1 12 7 7 12 16 12 22 0 5 -6
2 -13 -8 -11 -15 -18 -16 -33 -8 -19 10 -26 12 -45 12 -5 0 -8 4 -5 8 3 5 -1
9 -9 9 -11 0 -12 -4 -4 -13 6 -7 6 -14 1 -18 -6 -3 -13 1 -16 10 -9 23 -36 -1
-31 -26 5 -27 -6 -31 -30 -13 -17 13 -17 15 -2 9 12 -4 16 -2 11 6 -4 6 -3 9
2 6 5 -4 10 6 10 20 2 26 1 26 -9 5 -5 -13 -14 -23 -19 -23 -11 0 -10 14 2 26
6 6 -1 10 -20 10 -27 2 -35 -6 -31 -28 0 -4 -8 -6 -19 -5 -24 2 -26 13 -5 21
22 8 18 40 -7 62 -23 19 -23 19 -5 -2 19 -22 23 -54 7 -54 -9 0 -14 15 -11 33
1 5 -3 6 -8 2 -6 -3 -8 -13 -5 -23 5 -14 2 -13 -11 3 -11 14 -16 15 -13 5 2
-9 -1 -16 -7 -17 -5 0 -9 4 -7 10 3 9 0 9 -9 0 -16 -16 -39 -5 -32 15 3 10 1
13 -4 7 -10 -13 -23 -13 -43 -1 -9 6 -7 1 4 -12 11 -12 14 -22 9 -22 -15 0
-30 22 -30 42 0 13 4 15 18 7 13 -6 22 -4 33 7 14 14 14 34 0 34 -3 0 -2 -5 2
-12 5 -7 3 -8 -6 -3 -8 5 -11 4 -6 -3 3 -6 2 -14 -4 -17 -6 -4 -9 -1 -8 7 2 7
-4 12 -12 10 -8 -2 -11 0 -7 5 5 4 14 8 20 8 7 0 11 7 11 16 -1 9 5 16 12 16
7 0 11 -4 8 -8 -2 -4 0 -10 5 -13 5 -3 7 10 5 29 -2 24 1 33 8 29 7 -4 8 -2 4
5 -6 8 -12 9 -20 2 -17 -14 -29 -1 -15 16 9 10 8 13 -2 13 -11 0 -11 2 1 10 9
6 10 10 3 10 -6 0 -15 -5 -18 -11 -5 -7 -12 -5 -23 5 -15 13 -22 16 -37 16 -2
0 0 12 5 28 9 25 9 26 -5 8 -14 -18 -15 -18 -15 -2 0 9 -4 15 -9 11 -5 -3 -12
-1 -16 5 -4 6 -10 8 -15 5 -5 -3 -12 0 -16 6 -5 8 -3 9 6 4 9 -5 10 -1 6 16
-6 21 -5 21 9 -3 20 -35 27 -36 19 -3 -3 14 -1 31 5 39 8 10 9 16 1 21 -9 6
-14 -1 -11 -17 2 -16 -15 -7 -28 15 -13 20 -13 21 1 9 14 -11 17 -8 27 18 5
17 6 28 1 25 -11 -7 -32 30 -22 39 4 4 -7 5 -23 2 -26 -6 -27 -5 -7 3 26 12
29 22 5 18 -26 -4 -44 -17 -38 -27 3 -5 1 -11 -4 -14 -5 -4 -13 -1 -17 5 -4 7
-3 9 3 6 5 -3 10 0 10 8 0 8 -4 12 -8 9 -4 -2 -9 1 -11 8 -3 7 -4 -7 -4 -29 0
-34 3 -40 13 -31 8 6 16 8 20 4 3 -3 1 -6 -5 -6 -18 0 -14 -21 6 -37 10 -9 5
-8 -12 2 -16 9 -26 12 -22 7 3 -6 0 -13 -6 -15 -8 -3 -6 -6 5 -6 20 -1 22 -12
5 -30 -11 -11 -10 -13 3 -8 13 4 16 1 11 -15 -4 -16 -2 -19 8 -13 9 5 11 4 6
-4 -4 -6 -12 -9 -17 -6 -5 4 -9 2 -9 -4 0 -5 5 -11 12 -13 7 -3 5 -7 -6 -11
-11 -5 -15 -3 -10 5 5 7 3 8 -6 3 -7 -4 -16 -2 -21 6 -6 10 -8 8 -6 -8 0 -12
5 -21 11 -20 5 1 10 -10 11 -26 1 -15 -1 -25 -4 -21 -3 3 -6 10 -6 16 0 6 -8
16 -18 22 -14 9 -20 8 -27 -4 -5 -8 -14 -15 -19 -15 -12 0 -60 -52 -54 -58 2
-3 0 -8 -6 -11 -6 -4 -8 2 -6 15 4 21 4 21 -15 4 -21 -19 -27 -30 -11 -20 5 3
13 0 17 -7 11 -18 12 -48 2 -54 -4 -3 -8 0 -8 6 0 7 -7 9 -16 6 -9 -4 -22 -2
-29 4 -8 6 -16 7 -19 2 -3 -5 6 -14 19 -20 17 -8 25 -8 25 -1 0 6 5 7 10 4 6
-4 7 -11 4 -17 -5 -7 -2 -8 6 -3 8 5 11 4 7 -1 -3 -6 3 -10 13 -11 11 -1 22 2
25 8 3 5 -2 6 -12 3 -15 -6 -15 -4 2 10 l20 16 -20 -7 c-11 -3 -17 -3 -13 2
10 11 59 15 53 5 -3 -5 4 -8 15 -7 14 1 19 6 15 17 -3 10 -1 9 9 -3 15 -20 25
-12 21 15 -2 10 2 16 8 15 7 -1 11 6 11 16 -1 12 2 15 10 8 7 -6 17 -6 26 -1
8 6 11 10 6 10 -5 0 -3 6 3 13 6 8 9 16 6 19 -3 2 2 5 10 5 13 0 13 -3 -2 -19
-18 -20 -4 -25 15 -6 8 8 12 9 12 1 0 -6 -5 -13 -12 -15 -13 -5 -2 -28 13 -28
6 0 8 4 4 9 -3 5 -1 12 4 15 18 11 5 -24 -15 -40 -19 -15 -19 -15 2 -11 13 3
21 -1 21 -9 0 -8 -4 -14 -9 -14 -5 0 -6 -5 -2 -12 5 -8 11 -6 19 6 12 15 13
15 19 0 3 -9 4 -19 1 -24 -3 -4 3 -14 12 -21 14 -12 15 -11 9 9 -5 16 -3 22 8
22 19 0 15 -48 -5 -62 -11 -7 -9 -8 6 -3 15 5 17 3 8 -6 -14 -14 -34 -3 -27
16 4 9 -1 13 -12 11 -10 -2 -20 -8 -22 -14 -2 -7 -8 -10 -12 -7 -5 3 -16 -5
-24 -17 -9 -12 -16 -19 -16 -14 0 5 -6 4 -12 -1 -15 -12 -49 -13 -42 -2 2 4
-5 6 -16 4 -11 -2 -18 0 -15 5 6 9 -8 8 -42 -4 -13 -4 -23 -12 -23 -18 0 -7 4
-7 13 1 8 6 17 8 20 4 4 -3 7 -1 7 6 0 7 5 9 10 6 6 -4 8 -10 5 -15 -3 -5 -1
-11 5 -15 18 -11 10 -22 -15 -20 -13 2 -30 -4 -37 -13 -11 -13 -11 -14 2 -7
22 14 43 15 55 5 14 -12 17 19 3 37 -5 7 -5 14 2 18 5 3 10 2 10 -4 0 -6 13
-9 30 -7 16 2 32 1 35 -2 3 -3 16 -7 28 -9 12 -2 17 0 12 4 -15 11 -13 35 4
41 8 3 11 0 8 -5 -10 -16 10 -38 25 -27 22 16 53 10 52 -9 -1 -9 3 -14 8 -11
5 3 7 13 4 21 -4 9 -1 13 6 10 7 -2 12 -13 10 -23 -2 -15 -1 -16 7 -4 5 8 7
18 4 23 -3 5 4 4 16 -2 24 -13 28 -23 6 -15 -8 4 -15 1 -15 -6 0 -6 4 -9 9 -5
5 3 12 -3 14 -12 4 -17 5 -17 6 -1 1 15 5 16 27 8 16 -7 23 -7 19 0 -3 6 -13
10 -21 10 -8 0 -13 4 -9 9 3 5 0 13 -6 17 -8 4 -9 3 -5 -4 4 -7 5 -12 2 -12
-3 0 -10 9 -16 20 -8 15 -8 18 3 14 8 -3 21 1 28 8 15 15 25 15 52 3 14 -6 16
-10 6 -16 -7 -4 -19 -4 -25 2 -13 11 -46 1 -39 -12 3 -4 12 -6 19 -3 8 3 17 1
21 -5 4 -7 -1 -8 -12 -5 -16 6 -16 5 -3 -7 8 -8 24 -23 34 -34 11 -11 15 -13
10 -5 -13 19 -16 60 -4 60 4 0 10 -6 13 -12 4 -10 7 -10 18 0 7 6 20 12 28 12
13 -1 13 -2 -1 -11 -10 -5 -18 -15 -18 -22 0 -7 4 -6 10 3 5 8 10 11 10 6 0
-6 7 -1 15 10 17 22 20 12 5 -16 -9 -16 -8 -18 6 -13 12 4 15 3 10 -5 -5 -8
-1 -10 10 -5 12 4 15 3 10 -5 -14 -22 9 -12 24 10 17 28 19 38 8 60 -5 10 -4
19 2 23 5 3 11 1 11 -4 3 -21 4 -26 13 -40 7 -10 6 -12 -4 -6 -9 5 -11 4 -6
-3 9 -15 -33 -72 -49 -66 -7 3 -15 1 -19 -4 -3 -5 1 -9 9 -10 8 -1 22 -3 30
-4 8 -1 16 -7 19 -14 5 -12 -13 -10 -39 5 -5 3 -14 6 -20 6 -5 0 -10 9 -10 20
0 11 -3 19 -8 18 -4 -2 -13 -3 -19 -3 -10 0 -10 -2 0 -8 6 -5 11 -20 10 -34
-1 -15 -6 -24 -10 -22 -4 3 -5 11 -2 18 5 14 -10 29 -35 33 -10 1 -11 -1 -2
-10 19 -19 12 -31 -7 -14 -10 10 -22 14 -26 10 -4 -4 -11 -1 -15 6 -7 11 -13
11 -27 1 -15 -9 -15 -10 -2 -6 9 2 21 -1 27 -8 9 -11 2 -11 -36 -3 -27 6 -54
17 -61 24 -7 7 -16 13 -20 13 -3 0 -1 -5 6 -12 7 -7 12 -19 12 -27 0 -11 -4
-10 -15 5 -8 10 -15 15 -15 9 0 -5 -5 -3 -11 5 -8 12 -9 10 -4 -7 3 -13 3 -23
0 -23 -13 0 -34 28 -27 35 4 5 1 5 -6 1 -11 -6 -11 -11 0 -24 12 -14 10 -14
-12 -2 -14 8 -29 13 -34 12 -4 -2 -14 5 -21 15 -13 17 -13 17 -12 -1 1 -10 -4
-21 -10 -23 -7 -3 -13 0 -13 7 0 6 6 8 13 4 9 -5 9 -4 0 6 -10 11 -16 10 -35
-6 -15 -12 -18 -13 -10 -3 11 14 9 16 -13 16 -14 1 -25 -4 -25 -9 0 -5 6 -6
13 -2 8 5 8 2 -2 -9 -14 -17 -26 -24 -17 -9 2 4 1 14 -3 21 -7 11 -13 11 -27
1 -16 -10 -16 -11 -1 -6 24 7 21 -1 -4 -15 -15 -8 -19 -8 -15 0 8 12 -21 11
-40 -2 -6 -3 -14 -3 -18 0 -12 12 -48 14 -41 2 4 -6 -2 -5 -14 3 -12 7 -21 16
-21 20 0 5 -5 8 -11 8 -5 0 -8 -4 -5 -9 10 -15 -22 -21 -34 -6 -7 8 -16 13
-20 10 -5 -3 -10 0 -12 7 -3 8 -7 6 -11 -4 -4 -13 -1 -16 14 -13 20 4 26 -9 9
-20 -5 -3 -10 -1 -10 6 0 9 -4 9 -15 -1 -12 -10 -14 -8 -10 9 2 11 -1 23 -6
27 -5 3 -9 2 -8 -3 3 -19 -2 -34 -9 -29 -18 11 -61 14 -59 4 1 -6 -8 -11 -20
-13 -12 -1 -20 2 -17 7 3 4 -2 8 -11 8 -10 0 -13 -5 -9 -12 5 -7 3 -8 -7 -2
-8 5 -17 9 -21 10 -5 1 -10 2 -13 3 -3 0 -1 10 5 20 7 15 6 23 -6 35 -9 9 -11
16 -4 16 6 0 8 5 4 12 -4 7 -3 8 4 4 7 -4 12 -2 12 5 0 7 3 9 6 6 4 -4 1 -13
-5 -21 -10 -11 -9 -14 1 -12 7 1 19 5 26 9 6 5 16 6 21 2 5 -3 13 0 16 6 11
17 -1 22 -24 9 -14 -7 -21 -7 -21 0 0 9 17 14 48 13 8 -1 11 7 7 21 -6 21 -6
21 7 0 14 -21 58 -28 70 -10 5 7 8 7 8 -1 0 -7 7 -10 18 -7 15 5 15 4 2 -6
-13 -10 -13 -11 2 -6 10 3 22 -2 27 -12 7 -11 11 -12 11 -4 0 7 5 10 12 6 6
-4 8 -3 4 4 -3 6 -1 14 5 18 9 5 7 11 -6 21 -11 7 -14 13 -9 13 6 0 16 -6 23
-13 11 -10 12 -7 7 13 -6 25 -6 25 5 2 13 -24 24 -28 34 -12 4 7 12 7 18 2 7
-5 22 -9 35 -10 19 -1 21 2 12 13 -6 8 -17 12 -24 9 -7 -3 -19 2 -26 10 -14
18 -34 11 -24 -7 4 -7 3 -8 -1 -4 -25 23 -7 42 22 24 6 -4 14 -3 17 2 4 5 -3
13 -15 16 -11 4 -18 9 -16 12 3 2 15 -1 27 -7 12 -6 24 -9 27 -7 3 3 -14 15
-37 27 -40 20 -41 23 -26 38 14 14 18 14 25 4 7 -11 9 -10 14 3 4 10 3 14 -4
10 -18 -12 -5 28 16 51 11 12 24 19 29 16 5 -3 6 1 1 8 -5 9 -4 11 4 6 6 -4 9
-12 6 -17 -11 -16 7 -10 20 8 10 14 10 20 -1 31 -8 7 -12 18 -9 23 4 5 2 9 -3
9 -6 0 -13 -7 -16 -16 -3 -8 -2 -13 3 -10 5 3 11 -1 15 -9 6 -18 1 -19 -24 -5
-16 9 -19 8 -14 -7 3 -12 -1 -10 -13 6 -19 26 -27 54 -12 45 13 -8 11 10 -3
25 -11 11 -9 11 9 0 12 -7 19 -17 17 -21 -3 -4 -1 -8 4 -8 6 0 13 7 16 16 3 8
2 13 -2 11 -4 -3 -13 1 -20 9 -7 8 -8 14 -2 14 13 0 13 36 -1 62 -7 12 -7 18
-1 14 6 -3 13 0 16 6 3 7 3 3 1 -9 -3 -12 -1 -24 5 -28 6 -4 8 6 5 30 -3 26
-1 34 8 30 7 -4 4 0 -6 8 -15 13 -16 15 -2 21 8 3 15 11 15 17 0 8 -6 7 -17
-2 -16 -12 -17 -12 -6 2 7 9 10 19 6 23 -4 4 0 4 8 1 11 -4 18 1 22 15 3 12
10 19 16 15 7 -4 8 0 4 11 -5 13 -3 15 8 9 12 -8 12 -6 0 8 -7 9 -17 14 -22
11 -5 -3 -6 2 -3 10 3 9 10 14 14 11 5 -3 12 0 16 6 4 7 3 9 -4 5 -6 -3 -18 4
-27 16 -12 16 -19 19 -22 10 -3 -6 -10 -9 -15 -6 -6 4 -8 2 -5 -4 4 -5 4 -17
1 -26 -5 -12 -10 -14 -19 -6 -9 8 -15 7 -19 -2 -3 -7 -4 -2 -1 12 3 14 2 19
-1 12 -3 -6 -10 -10 -15 -7 -5 4 -6 -1 -3 -9 4 -11 0 -16 -11 -16 -11 0 -15
-5 -12 -14 6 -14 -18 -43 -38 -46 -14 -3 -51 -30 -41 -30 5 0 18 7 28 17 10 9
18 12 18 7 0 -12 -42 -39 -54 -36 -5 2 -4 -3 2 -11 7 -8 8 -17 4 -21 -4 -4 -7
-12 -7 -17 0 -5 -3 -9 -7 -9 -5 0 -13 0 -19 0 -5 0 -7 5 -3 12 4 7 3 8 -4 4
-6 -4 -9 -13 -5 -21 7 -21 -7 -19 -23 3 -13 15 -13 14 -5 -10 12 -33 -13 -48
-29 -17 -6 11 -16 16 -22 13 -7 -4 -8 -3 -4 4 11 19 26 14 36 -10 5 -14 9 -17
9 -8 1 9 -5 22 -11 28 -9 9 -10 15 -2 20 6 4 10 15 8 24 -1 10 2 20 6 23 5 3
6 13 3 22 -4 10 -2 14 5 9 7 -4 9 3 6 21 -5 27 -5 27 10 8 15 -19 16 -19 9 -1
-4 13 -3 17 5 12 7 -4 10 0 7 13 -3 15 1 18 18 15 12 -2 16 -2 10 2 -10 4 -9
9 2 21 8 8 12 20 8 26 -4 6 0 8 10 4 10 -3 17 -2 17 3 0 5 8 6 18 3 15 -6 15
-5 3 10 -7 9 -10 17 -6 17 4 0 1 8 -6 18 -13 15 -12 16 3 4 14 -11 19 -10 32
10 9 12 16 18 16 14 0 -5 -8 -18 -17 -28 -13 -15 -14 -21 -4 -31 10 -9 11 -8
5 7 -6 15 -4 17 6 11 8 -5 11 -4 6 3 -7 12 27 35 37 26 3 -3 3 5 0 18 -3 16
-2 19 5 9 7 -9 12 -10 16 -2 4 6 12 8 18 5 7 -4 8 -2 4 5 -4 6 -11 9 -16 6 -5
-3 -11 -1 -15 4 -3 6 4 8 15 6 12 -2 23 2 27 10 3 8 10 12 15 9 6 -4 5 -10 -3
-15 -7 -4 -10 -11 -6 -16 10 -9 28 18 23 34 -3 6 3 10 12 8 9 -2 23 -4 30 -4
8 -1 10 -6 6 -13 -4 -6 8 0 27 14 33 26 35 26 56 8 12 -9 20 -20 18 -24 -3 -3
-2 -4 2 -1 3 3 13 -1 21 -8 13 -10 14 -9 8 2 -6 9 -5 12 5 9 8 -3 13 -10 12
-16 -2 -8 25 -9 35 -2 15 13 56 -6 46 -21 -3 -5 3 -6 12 -2 11 4 13 8 6 11 -7
2 -9 8 -6 13 3 6 11 6 20 -2 7 -6 12 -14 10 -18 -3 -4 4 -8 15 -8 18 -2 18 0
-3 17 -28 24 -16 26 18 4 20 -14 22 -19 12 -32 -8 -10 -9 -13 -2 -9 7 4 15 -4
19 -21 l7 -27 12 24 c14 26 23 19 21 -16 -1 -12 1 -22 4 -21 3 0 13 0 21 -1
13 -1 13 -2 0 -12 -12 -8 -12 -10 -1 -7 8 2 15 12 17 22 2 11 -2 16 -11 12
-18 -7 -29 10 -14 20 8 5 4 13 -12 26 -13 11 -18 16 -10 12 9 -4 12 -3 7 4 -4
7 1 10 14 7 14 -3 18 0 13 8 -4 7 0 7 10 -2 9 -7 14 -17 11 -23 -3 -5 -12 -4
-20 3 -17 14 -19 -2 -2 -19 7 -7 8 -12 3 -12 -6 0 -4 -4 4 -9 14 -9 21 -28 24
-63 1 -9 5 -14 9 -12 4 3 8 1 8 -5 0 -6 12 -9 28 -8 18 1 27 -3 27 -13 1 -17
51 -71 59 -63 2 3 2 -4 -1 -15 -2 -11 1 -23 8 -27 7 -5 10 -4 5 3 -3 6 -3 13
2 16 12 7 12 -26 0 -41 -7 -9 -4 -11 11 -8 19 3 26 -5 22 -28 -1 -4 5 -10 12
-13 8 -3 13 -16 12 -29 -3 -21 0 -23 27 -19 29 3 30 3 12 -11 -19 -15 -19 -15
1 -10 11 3 7 -2 -10 -10 l-30 -16 38 5 c27 4 37 1 34 -7 -2 -7 -13 -11 -23 -9
-14 2 -16 0 -6 -6 8 -5 12 -17 10 -27 -2 -10 4 -20 12 -22 13 -4 13 -3 0 6
-11 8 -12 11 -2 11 7 0 11 4 7 9 -3 5 0 13 7 17 7 4 10 4 6 -1 -4 -4 1 -15 10
-24 10 -9 13 -13 8 -8 -19 14 -28 7 -15 -10 10 -11 10 -14 2 -9 -7 4 -13 3
-13 -3 0 -5 3 -11 8 -14 4 -2 2 -2 -5 -1 -6 2 -17 -4 -25 -13 -11 -14 -10 -15
12 -9 22 6 22 5 7 -4 -18 -11 -18 -13 -1 -31 9 -10 13 -19 8 -19 -5 -1 4 -8
19 -16 15 -8 25 -19 22 -24 -4 -6 -2 -10 2 -10 11 0 44 55 38 64 -3 3 -2 4 2
1 13 -10 11 -34 -4 -39 -8 -3 -12 -10 -9 -14 3 -5 -5 -14 -19 -20 -21 -10 -23
-9 -20 8 4 21 -21 35 -31 18 -4 -7 -3 -8 4 -4 7 4 12 2 12 -3 0 -22 2 -26 18
-45 16 -18 16 -19 0 -13 -10 4 -18 2 -18 -3 0 -17 26 -11 44 9 10 11 25 17 34
14 10 -3 13 -1 7 4 -5 4 -12 17 -13 27 -3 18 -2 18 14 5 11 -8 15 -9 10 -1 -4
7 -2 12 6 12 9 0 10 3 2 8 -6 4 -10 15 -8 25 1 9 -1 15 -6 12 -4 -3 -10 2 -13
10 -4 8 -15 12 -27 10 -11 -2 -18 0 -15 6 4 5 11 7 16 4 5 -4 9 0 9 7 0 8 5 6
11 -4 11 -20 29 -24 29 -7 0 5 -4 8 -9 5 -14 -9 -20 31 -7 46 6 7 -2 2 -19
-12 -16 -14 -25 -18 -19 -10 15 20 14 52 -1 46 -6 -2 -12 1 -12 8 0 6 8 12 18
12 11 0 16 -7 14 -18 -3 -15 -1 -16 16 -8 24 13 25 22 2 13 -16 -6 -16 -5 -5
10 12 14 11 16 -7 12 -11 -2 -24 1 -27 7 -4 7 -2 8 4 4 7 -4 12 -2 12 3 0 6
-5 11 -11 11 -5 0 -7 4 -4 10 4 6 -1 7 -12 3 -15 -5 -16 -3 -5 8 21 22 13 33
-10 13 -12 -10 -18 -14 -15 -7 4 6 4 13 0 16 -5 2 -3 2 4 1 12 -3 27 25 18 34
-3 3 -5 -1 -5 -9 0 -11 -2 -11 -10 1 -7 11 -5 17 8 22 13 5 12 7 -7 7 -20 1
-21 3 -11 16 7 8 17 12 23 8 6 -3 7 -1 3 5 -3 6 -15 9 -26 7 -15 -3 -20 2 -20
18 0 18 2 19 10 7 5 -8 10 -11 10 -6 0 15 -49 66 -54 57 -4 -5 -2 -11 4 -13 5
-1 6 -8 2 -15 -5 -8 -11 -3 -19 13 -6 13 -7 22 -2 18 5 -3 9 2 9 10 0 18 -11
21 -26 6 -6 -6 -10 -2 -11 12 -2 18 0 20 7 8 7 -10 10 -11 10 -2 0 23 -3 27
-23 24 -17 -3 -19 0 -13 25 5 22 4 24 -4 11 -12 -20 -35 -14 -45 10 -5 13 -1
12 17 -4 13 -11 18 -12 10 -3 -6 9 -9 19 -6 22 3 3 -9 4 -26 2 -31 -4 -32 -4
-14 11 16 13 16 15 2 10 -10 -3 -20 0 -24 6 -4 6 -3 8 4 4 6 -3 14 -2 17 4 4
6 3 10 -2 9 -24 -4 -41 3 -52 24 -6 12 -9 14 -6 4 3 -10 1 -15 -5 -12 -6 3
-10 1 -10 -4 0 -6 -5 -11 -12 -11 -9 0 -9 3 0 12 21 21 13 32 -9 12 -22 -19
-22 -19 -10 4 7 12 8 22 4 21 -19 -3 -27 2 -14 10 9 6 5 9 -13 9 -14 0 -26 -5
-26 -10 0 -7 -5 -6 -13 1 -8 6 -17 8 -20 4 -4 -3 -7 -1 -7 7 0 10 -3 10 -15 0
-14 -12 -15 -10 -11 13 3 20 1 25 -11 20 -11 -4 -14 -2 -9 5 4 7 2 12 -3 12
-6 0 -11 -5 -11 -11 0 -5 -5 -7 -10 -4 -6 4 -8 10 -5 14 2 5 -2 17 -10 27 -12
17 -16 17 -37 5 -22 -13 -22 -13 -8 4 14 17 13 17 -10 12 -17 -5 -15 -2 8 8
38 18 43 29 6 15 -32 -13 -47 -13 -39 -1 3 5 1 12 -4 16 -6 3 -8 -6 -5 -22 4
-25 3 -26 -7 -8 -17 29 -51 54 -66 48 -11 -4 -12 3 -8 28 4 24 2 30 -4 19 -5
-8 -7 -18 -4 -24 3 -5 1 -6 -5 -2 -7 4 -9 19 -5 38 4 22 3 29 -6 24 -6 -4 -8
-12 -5 -18 4 -7 2 -8 -5 -4 -9 6 -9 11 1 23 6 8 13 22 14 30 2 8 6 18 10 21 4
4 4 -1 1 -10 -4 -10 -2 -18 3 -18 5 0 14 8 20 18 11 16 11 16 6 0 -3 -10 -1
-20 4 -23 6 -4 10 4 10 17 1 22 1 22 16 -4 8 -16 17 -28 20 -28 2 0 0 9 -5 19
-8 15 -7 21 7 27 9 4 20 6 25 6 16 -4 6 17 -10 21 -17 4 -17 5 0 6 10 0 15 6
12 11 -4 6 -11 7 -17 4 -7 -4 -8 -2 -4 5 6 9 11 9 21 1 10 -8 15 -7 19 2 3 7
3 -2 0 -20 -2 -19 -1 -31 4 -28 15 9 11 55 -6 68 -10 8 -13 8 -9 2 4 -8 -1
-11 -16 -10 -15 0 -24 8 -24 19 -2 15 1 16 12 7 10 -9 13 -7 10 7 -1 10 -8 17
-14 16 -6 -2 -16 6 -23 16 -6 10 -19 17 -27 14 -10 -3 -6 4 8 16 25 23 21 27
-11 10 -15 -8 -23 -8 -32 1 -8 8 -7 10 6 5 11 -4 20 0 27 14 16 29 13 38 -5
15 -10 -12 -14 -14 -11 -4 2 8 0 24 -6 35 -9 17 -8 18 4 8 13 -10 15 -7 13 18
-2 25 1 29 14 24 13 -5 14 -3 5 6 -14 14 -36 2 -27 -14 4 -7 3 -8 -1 -4 -13
11 -15 38 -3 31 6 -4 8 2 3 17 -6 22 -6 22 6 7 11 -13 18 -15 29 -7 12 9 11
10 -5 4 -11 -3 -16 -3 -13 1 4 4 3 14 -2 24 -6 12 -5 17 5 17 7 0 11 -6 8 -14
-3 -7 -1 -13 5 -13 6 0 9 11 8 25 -2 13 0 22 5 20 4 -3 11 0 15 6 4 8 3 9 -4
5 -16 -10 -15 7 1 23 10 11 9 12 -2 6 -11 -6 -13 -4 -7 10 5 15 4 16 -9 5 -8
-7 -15 -8 -15 -3 0 5 -26 10 -59 10 -55 0 -57 -1 -43 -18z m89 -5 c-3 -3 -12
-4 -19 -1 -8 3 -5 6 6 6 11 1 17 -2 13 -5z m-97 -30 c-1 -4 4 -10 12 -15 9 -6
6 -8 -10 -6 -13 1 -18 5 -13 10 5 5 8 15 7 21 -2 6 -1 8 1 4 3 -4 4 -10 3 -14z
m130 22 c0 -3 -4 -8 -10 -11 -5 -3 -10 -1 -10 4 0 6 5 11 10 11 6 0 10 -2 10
-4z m-25 -26 c3 -5 1 -10 -4 -10 -6 0 -11 5 -11 10 0 6 2 10 4 10 3 0 8 -4 11
-10z m-38 -182 c-3 -8 -6 -5 -6 6 -1 11 2 17 5 13 3 -3 4 -12 1 -19z m-81 -26
c-15 -15 -15 -15 -4 10 7 15 15 23 17 17 2 -6 -4 -18 -13 -27z m20 -66 c0 -14
-5 -21 -9 -17 -4 4 -5 15 -1 24 9 24 12 21 10 -7z m124 -1 c7 -8 10 -15 6 -15
-3 0 -8 0 -11 0 -3 0 -5 3 -4 6 0 4 -5 11 -13 15 -8 5 -9 9 -2 9 6 0 17 -7 24
-15z m0 -45 c0 -5 -2 -10 -4 -10 -3 0 -8 5 -11 10 -3 6 -1 10 4 10 6 0 11 -4
11 -10z m-217 -195 c-3 -8 -10 -15 -15 -15 -7 0 -6 5 1 13 6 8 7 18 3 22 -4 5
-2 5 5 1 7 -4 10 -13 6 -21z m214 -50 c0 -7 -6 -11 -14 -8 -7 3 -10 9 -7 14 3
5 0 9 -5 9 -6 0 -11 5 -11 10 0 6 7 6 18 -1 10 -7 19 -17 19 -24z m-249 -9
c-7 -8 -15 -12 -17 -11 -5 6 10 25 20 25 5 0 4 -6 -3 -14z m357 -36 c-3 -5 -1
-10 6 -10 7 0 10 -2 7 -5 -3 -3 -13 -2 -22 1 -14 5 -15 9 -4 15 17 11 20 11
13 -1z m-238 -25 c0 -8 -4 -12 -9 -9 -5 3 -6 10 -3 15 9 13 12 11 12 -6z m153
-21 c0 -9 5 -12 12 -8 7 4 8 3 4 -5 -9 -14 -26 -5 -26 15 0 12 -4 13 -22 4
-22 -11 -22 -10 -4 4 21 17 36 13 36 -10z m93 11 c4 0 7 -3 7 -7 0 -5 -2 -7
-3 -5 -2 1 -11 -4 -20 -11 -10 -9 -17 -10 -22 -2 -3 6 -10 8 -15 5 -4 -3 -11
2 -14 11 -6 15 -4 15 18 0 15 -10 27 -12 31 -6 3 6 1 10 -4 10 -6 0 -11 5 -11
11 0 6 5 7 13 2 6 -4 15 -8 20 -8z m51 -26 c-6 -11 -24 -2 -24 11 0 5 7 7 15
4 8 -4 12 -10 9 -15z m-507 -24 c0 -8 -4 -12 -9 -9 -5 3 -6 10 -3 15 9 13 12
11 12 -6z m555 -10 c-4 -5 -7 -16 -8 -23 -2 -8 -6 -17 -10 -20 -4 -4 -4 1 -1
11 4 10 1 17 -6 18 -8 0 -7 2 2 6 11 5 11 7 0 14 -10 6 -7 8 8 6 12 0 19 -6
15 -12z m148 -60 c0 -2 -9 -3 -19 -2 -11 0 -18 5 -15 9 4 6 34 0 34 -7z m-44
-50 c1 -8 -2 -15 -6 -15 -5 0 -8 9 -7 20 1 21 10 18 13 -5z m-516 -10 c0 -8
-4 -15 -8 -15 -5 0 -9 7 -9 15 0 8 4 15 9 15 4 0 8 -7 8 -15z m14 -48 c-3 -8
-12 -14 -21 -14 -13 0 -13 2 3 14 10 7 19 13 21 13 1 0 0 -6 -3 -13z m741 -77
c3 -5 1 -10 -4 -10 -6 0 -11 5 -11 10 0 6 2 10 4 10 3 0 8 -4 11 -10z m-1055
-31 c-6 -10 -16 -19 -23 -19 -9 0 -8 3 1 9 7 4 12 12 11 17 -3 18 1 25 11 19
7 -4 7 -13 0 -26z m-172 -4 c-3 -3 -9 2 -12 12 -6 14 -5 15 5 6 7 -7 10 -15 7
-18z m1222 5 c0 -5 -2 -10 -4 -10 -3 0 -8 5 -11 10 -3 6 -1 10 4 10 6 0 11 -4
11 -10z m-521 -38 c-1 -15 -2 -15 -6 1 -2 9 -9 14 -15 11 -7 -4 -8 -2 -4 5 10
15 26 4 25 -17z m464 -5 c-4 -7 0 -8 13 -3 14 5 16 4 8 -4 -13 -13 -41 -4 -41
14 0 8 6 12 14 9 7 -3 10 -10 6 -16z m64 -7 c-1 -21 -10 -18 -13 5 -1 8 2 15
6 15 5 0 8 -9 7 -20z m-1063 -26 c3 -8 2 -12 -4 -9 -6 3 -10 10 -10 16 0 14 7
11 14 -7z m1016 -6 c0 6 5 12 11 12 8 0 8 -5 -1 -15 -13 -16 -30 -11 -30 8 0
7 4 6 10 -3 6 -10 10 -11 10 -2z m100 -79 c0 -5 -5 -7 -12 -3 -8 5 -9 1 -4
-12 5 -14 4 -16 -5 -7 -6 6 -8 16 -5 22 9 14 26 14 26 0z m-560 -13 c0 -2 -8
-10 -17 -17 -16 -13 -17 -12 -4 4 13 16 21 21 21 13z m-100 -21 c-7 -9 -15
-13 -19 -10 -3 3 1 10 9 15 21 14 24 12 10 -5z m-221 -61 c-11 -11 -17 -23
-14 -26 3 -3 -1 -8 -8 -11 -11 -4 -13 0 -10 14 3 10 10 19 15 19 5 0 7 4 4 9
-4 5 -3 16 0 25 5 12 9 13 19 3 11 -10 10 -16 -6 -33z m156 36 c-3 -5 -12 -10
-18 -10 -7 0 -6 4 3 10 19 12 23 12 15 0z m85 6 c0 -2 -7 -7 -16 -10 -8 -3
-12 -2 -9 4 6 10 25 14 25 6z m-423 -27 c-9 -6 -15 -14 -12 -19 3 -4 -2 -11
-11 -14 -10 -4 -13 -2 -8 7 14 24 37 47 43 41 3 -3 -2 -10 -12 -15z m48 -9
c-3 -5 -1 -11 5 -15 6 -4 8 -11 5 -16 -4 -5 0 -9 7 -9 10 0 10 -2 0 -9 -17
-11 -17 -22 0 -32 9 -6 6 -8 -10 -6 -16 1 -21 6 -17 17 5 12 4 13 -7 2 -11
-11 -10 -15 3 -25 12 -9 13 -15 5 -23 -6 -5 -19 -21 -29 -35 l-19 -24 16 28
c17 28 10 36 -13 15 -9 -9 -12 -9 -7 -1 3 6 2 13 -4 15 -5 1 -11 13 -13 25 -1
11 -9 29 -17 39 -14 17 -14 17 11 1 21 -14 26 -15 26 -2 0 8 -5 11 -11 8 -6
-4 -3 3 7 14 9 11 14 22 11 25 -3 4 4 9 15 13 13 4 18 11 14 18 -4 7 0 6 10
-2 9 -7 15 -17 12 -21z m-187 -14 c-1 -6 6 -26 16 -45 13 -25 15 -36 6 -45 -8
-8 -9 -6 -4 8 5 13 4 17 -4 12 -7 -4 -10 -2 -9 6 2 7 2 10 0 5 -3 -4 -9 -4
-15 -1 -6 4 -6 -2 1 -14 15 -27 14 -35 -3 -29 -7 3 -26 -1 -41 -9 -15 -8 -30
-12 -33 -9 -3 3 0 5 7 5 7 0 3 9 -10 21 -13 11 -18 17 -10 13 11 -5 13 -3 8 9
-3 9 0 23 8 31 8 7 11 16 8 20 -3 3 2 9 11 12 12 5 14 9 6 14 -6 4 5 7 25 7
20 0 34 -5 33 -11z m492 8 c0 -8 -19 -13 -24 -6 -3 5 1 9 9 9 8 0 15 -2 15 -3z
m-80 -24 c0 -5 -2 -10 -4 -10 -3 0 -8 5 -11 10 -3 6 -1 10 4 10 6 0 11 -4 11
-10z m783 -34 c2 3 7 -2 10 -10 10 -25 -20 -7 -38 22 l-16 27 19 -22 c11 -12
22 -20 25 -17z m-799 8 c3 -8 2 -13 -3 -9 -5 3 -11 -1 -14 -7 -3 -7 -4 -3 -4
10 1 25 12 29 21 6z m-410 -72 c2 -4 -5 -9 -17 -9 -17 -2 -19 0 -7 7 18 12 18
12 24 2z m130 -18 c3 -9 1 -12 -5 -9 -5 4 -18 1 -27 -7 -15 -12 -16 -11 -4 4
8 9 11 22 7 27 -3 6 0 8 9 5 8 -3 17 -12 20 -20z m67 3 c-10 -9 -11 -8 -5 6 3
10 9 15 12 12 3 -3 0 -11 -7 -18z m1059 20 c0 -2 -9 -12 -19 -21 -15 -14 -21
-15 -27 -4 -4 7 -4 10 1 6 4 -4 14 -1 22 7 14 14 23 19 23 12z m-1200 -23 c0
-8 -19 -13 -24 -6 -3 5 1 9 9 9 8 0 15 -2 15 -3z m674 -45 c-3 -5 0 -9 5 -9
10 0 16 21 12 43 -1 4 9 1 22 -8 13 -8 27 -12 32 -8 4 5 5 2 1 -5 -4 -7 -12
-10 -17 -7 -5 4 -9 0 -9 -7 0 -9 -3 -9 -10 2 -9 13 -10 13 -11 0 -1 -8 -1 -18
-1 -21 1 -3 -6 -6 -14 -6 -7 0 -14 4 -14 9 0 5 -6 6 -12 1 -7 -4 -22 -8 -33
-8 -11 0 -25 -4 -32 -8 -6 -4 -14 -3 -18 3 -3 5 -2 10 4 10 6 0 7 8 4 18 -7
16 -6 16 11 0 9 -10 21 -18 25 -18 15 0 29 24 25 43 -2 18 -2 18 17 2 10 -10
16 -22 13 -26z m-518 7 c18 5 18 5 0 -6 -15 -10 -21 -9 -35 6 -14 16 -14 17 0
6 9 -7 25 -10 35 -6z m654 8 c0 -8 -19 -13 -24 -6 -3 5 1 9 9 9 8 0 15 -2 15
-3z m75 -13 c-1 -17 -7 -21 -27 -21 -9 0 -8 4 2 10 11 7 11 10 2 10 -7 0 -11
4 -8 8 9 15 32 9 31 -7z m-790 -1 c-3 -5 -12 -10 -18 -10 -7 0 -6 4 3 10 19
12 23 12 15 0z m930 -9 c-3 -2 0 -10 6 -18 9 -10 8 -17 -1 -28 -7 -9 -15 -13
-18 -10 -3 2 1 11 8 20 7 8 10 15 6 15 -3 0 -9 1 -13 3 -10 4 -13 -36 -3 -52
8 -14 9 -14 10 -1 0 13 2 13 11 0 9 -13 10 -12 5 3 -7 23 7 22 29 -3 10 -11
13 -20 7 -20 -6 0 -13 6 -15 13 -4 9 -6 9 -6 0 -1 -7 8 -17 20 -23 11 -7 18
-14 15 -17 -3 -4 2 -15 11 -26 18 -20 18 -20 -12 -1 -29 19 -29 19 -21 -1 6
-16 5 -17 -5 -8 -10 10 -9 16 1 28 11 13 10 14 -5 9 -13 -5 -16 -4 -11 4 4 7
2 13 -3 13 -15 2 -23 4 -45 14 -18 8 -40 -11 -30 -26 2 -4 -4 -7 -15 -6 -19 1
-19 2 1 29 11 16 23 26 27 24 4 -3 7 4 8 14 1 11 -3 22 -8 26 -15 9 6 30 30
30 11 0 18 -2 16 -5z m-837 -12 c-2 -6 -8 -10 -13 -10 -5 0 -11 4 -13 10 -2 6
4 11 13 11 9 0 15 -5 13 -11z m646 -10 c-3 -5 -10 -7 -15 -3 -5 3 -7 10 -3 15
3 5 10 7 15 3 5 -3 7 -10 3 -15z m-294 -5 c0 -8 -19 -13 -24 -6 -3 5 1 9 9 9
8 0 15 -2 15 -3z m399 -16 c14 5 14 3 2 -11 -10 -13 -18 -14 -32 -6 -11 5 -17
15 -13 20 4 7 10 7 16 1 6 -6 18 -8 27 -4z m-989 -43 c0 -12 -19 -12 -23 0 -4
9 -1 12 9 8 7 -3 14 -7 14 -8z m1055 -15 c4 -6 11 -8 16 -5 8 6 13 -9 10 -29
-1 -4 4 -16 11 -25 11 -14 11 -14 -3 -4 -9 7 -20 9 -24 5 -5 -4 -6 -2 -2 3 3
6 0 21 -7 34 -11 20 -14 21 -19 7 -4 -10 -3 -15 1 -12 5 3 9 -1 9 -8 0 -8 -6
-12 -13 -9 -11 4 -13 24 -5 51 2 6 21 1 26 -8z m-98 -46 c-3 -3 -12 -4 -19 -1
-8 3 -5 6 6 6 11 1 17 -2 13 -5z m283 -54 c0 -5 -2 -10 -4 -10 -3 0 -8 5 -11
10 -3 6 -1 10 4 10 6 0 11 -4 11 -10z m0 -30 c0 -5 -2 -10 -4 -10 -3 0 -8 5
-11 10 -3 6 -1 10 4 10 6 0 11 -4 11 -10z m-1226 -46 c3 -8 2 -12 -4 -9 -6 3
-10 10 -10 16 0 14 7 11 14 -7z m-97 -86 c-3 -8 -6 -5 -6 6 -1 11 2 17 5 13 3
-3 4 -12 1 -19z m308 -18 c-3 -5 -12 -10 -18 -10 -7 0 -6 4 3 10 19 12 23 12
15 0z m455 -21 c0 -5 4 -8 9 -5 5 3 15 -2 22 -12 12 -15 12 -16 -1 -6 -8 6
-25 10 -37 9 -14 -1 -19 3 -16 12 6 16 23 17 23 2z m-821 -115 c4 3 13 1 20
-3 10 -6 9 -10 -4 -14 -10 -5 -14 -3 -9 5 4 7 3 8 -5 4 -15 -10 -3 -29 15 -22
7 3 16 0 20 -6 4 -7 3 -8 -4 -4 -7 4 -12 2 -12 -4 0 -7 -7 -9 -16 -6 -9 3 -12
2 -9 -5 4 -5 16 -7 28 -3 19 6 20 5 8 -9 -7 -9 -18 -14 -24 -10 -6 3 -7 1 -3
-6 4 -6 11 -9 16 -6 4 3 10 -2 13 -10 4 -10 1 -12 -11 -8 -14 6 -15 4 -5 -9 7
-8 10 -18 6 -21 -3 -4 -1 -7 5 -7 7 0 11 -3 11 -7 -1 -5 4 -23 11 -41 9 -25
15 -30 21 -20 5 7 9 8 9 3 0 -6 -5 -16 -12 -23 -9 -9 -9 -12 0 -12 6 0 16 9
22 21 9 15 15 18 25 9 9 -8 15 -8 20 0 3 5 1 10 -6 10 -7 0 -10 3 -6 6 3 3 11
3 17 -1 8 -5 8 -10 0 -20 -8 -9 -8 -20 -2 -31 6 -11 11 -13 16 -5 4 6 2 11 -3
11 -6 0 -11 5 -11 11 0 8 5 8 15 -1 8 -7 12 -16 9 -21 -3 -5 -1 -9 4 -9 5 0 9
-7 9 -16 0 -14 -2 -14 -11 -3 -12 15 -51 26 -42 11 3 -5 -1 -9 -9 -9 -8 0 -12
4 -9 9 3 4 -2 8 -10 8 -9 0 -16 -4 -16 -10 0 -5 -5 -10 -11 -10 -8 0 -8 5 1
15 17 20 -4 20 -24 -1 -9 -8 -16 -11 -16 -6 0 5 -6 9 -12 10 -7 0 -30 2 -50 4
-46 4 -55 13 -37 35 12 16 12 17 -2 6 -9 -7 -18 -11 -20 -8 -3 2 -5 -4 -5 -15
0 -10 3 -17 6 -15 4 2 6 -5 5 -17 -1 -12 -9 -22 -18 -24 -9 -1 -16 1 -16 4 3
19 -3 23 -16 12 -9 -7 -18 -10 -22 -7 -6 7 15 37 25 35 26 -3 34 3 23 16 -10
11 -8 16 8 21 14 4 21 15 21 31 0 13 5 24 11 24 5 0 7 -6 3 -12 -4 -8 -3 -10
2 -5 5 5 9 12 9 15 0 4 4 13 9 21 7 11 5 13 -6 9 -11 -5 -14 0 -10 18 2 13 8
21 13 18 11 -6 0 25 -15 45 -8 11 -8 13 0 8 7 -4 14 3 18 18 4 14 11 23 16 20
6 -3 10 2 11 12 0 11 3 13 6 5 2 -6 8 -10 12 -8z m747 -20 c-11 -8 -13 -14 -7
-19 6 -3 11 -11 11 -17 0 -6 -9 -1 -20 12 -11 13 -20 20 -20 15 0 -4 -6 -2
-13 4 -8 6 -17 8 -21 4 -3 -4 7 -12 24 -19 26 -11 30 -18 26 -40 -3 -15 -10
-32 -16 -38 -12 -12 -14 -30 -2 -23 11 8 12 -46 0 -60 -7 -9 -7 -13 0 -13 6 0
12 5 14 12 3 8 9 8 23 1 17 -10 17 -11 -4 -18 -18 -5 -20 -10 -10 -21 6 -7 15
-11 20 -8 18 11 8 -27 -12 -47 -17 -17 -20 -17 -17 -3 2 9 -3 19 -11 22 -8 2
-11 0 -8 -5 3 -5 0 -10 -8 -10 -8 0 -12 4 -9 9 3 4 1 8 -5 8 -5 0 -11 -4 -13
-9 -1 -5 -10 -2 -18 7 -13 14 -12 15 4 9 16 -6 17 -5 6 8 -7 9 -16 12 -19 7
-10 -14 -66 -8 -63 7 1 7 -2 10 -8 6 -8 -5 -7 -11 1 -21 10 -12 9 -17 -1 -27
-10 -9 -11 -9 -6 1 4 7 1 15 -8 18 -9 3 -14 9 -11 13 2 4 -2 8 -10 8 -13 0
-13 -3 0 -17 20 -22 19 -36 -1 -16 -8 9 -23 16 -32 16 -15 0 -15 -2 -2 -10 13
-8 12 -10 -2 -10 -10 0 -18 6 -18 13 0 6 -6 3 -12 -7 -11 -19 -11 -19 -24 -1
-8 10 -14 14 -14 8 0 -20 -50 -22 -60 -2 -14 25 -13 29 8 23 10 -4 13 -2 7 3
-16 12 -16 50 1 63 7 7 12 16 9 20 -3 5 6 7 20 5 14 -1 25 2 25 6 0 5 -4 9 -8
9 -16 0 -9 35 10 56 13 15 16 24 9 29 -7 3 -10 3 -9 -2 3 -7 -9 -16 -14 -10
-4 5 37 67 44 67 4 0 7 -3 7 -7 -3 -21 3 -31 21 -36 11 -3 23 -1 26 4 3 5 11
6 17 2 7 -4 15 -8 19 -8 4 0 17 -8 28 -17 25 -22 37 -23 20 -3 -10 12 -9 16 4
21 9 3 13 11 9 17 -3 6 -1 7 6 3 9 -6 9 -11 -1 -23 -12 -15 -11 -15 10 -2 12
8 22 19 22 26 0 7 3 13 8 14 4 0 17 2 30 5 12 2 22 0 22 -6 0 -5 7 -7 15 -4 8
4 12 11 8 17 -4 6 -1 7 7 2 10 -6 9 -11 -4 -21z m708 17 c3 -5 -1 -11 -9 -15
-8 -3 -17 0 -21 6 -4 7 -3 8 4 4 7 -4 12 -2 12 3 0 13 7 14 14 2z m-935 -35
c0 -7 -2 -6 -6 2 -2 6 -8 10 -12 8 -4 -3 -8 1 -8 9 0 11 4 12 14 4 7 -6 13
-17 12 -23z m-275 12 c-3 -5 -9 -6 -14 -3 -5 3 -11 1 -15 -4 -6 -11 27 -7 47
5 7 4 8 3 4 -4 -4 -7 -3 -12 2 -12 5 0 9 -6 9 -14 0 -8 -6 -12 -14 -9 -7 3
-10 10 -6 16 4 6 1 7 -7 2 -10 -6 -8 -12 8 -25 23 -19 20 -32 -6 -24 -10 3 -6
-2 8 -10 l25 -15 -24 -1 c-24 0 -24 0 -5 -16 19 -15 19 -16 -1 -10 -19 6 -19
5 -2 -8 11 -8 26 -12 35 -9 14 4 14 3 3 -5 -21 -15 -23 -49 -5 -56 12 -5 14
-10 5 -19 -8 -10 -7 -14 4 -14 8 0 11 5 8 10 -3 6 -2 7 4 4 6 -4 18 0 29 7 17
13 16 13 -8 11 -21 -2 -25 0 -20 13 3 9 7 11 9 5 3 -7 11 -9 19 -6 7 3 11 10
7 17 -4 6 1 5 10 -3 12 -9 14 -18 7 -30 -5 -10 -7 -27 -4 -38 3 -12 0 -24 -6
-28 -8 -5 -10 -2 -6 12 5 14 1 19 -14 19 -11 0 -20 -6 -20 -14 0 -7 5 -10 12
-6 7 4 8 3 4 -5 -9 -14 -26 -5 -26 13 0 7 -6 13 -12 13 -23 1 -43 8 -51 18 -5
6 -7 3 -3 -7 3 -10 1 -20 -4 -23 -6 -4 -10 1 -10 9 0 20 -17 29 -26 15 -4 -8
-3 -9 4 -5 7 4 12 3 12 -3 0 -5 -4 -12 -9 -16 -9 -5 -27 32 -23 47 1 5 -3 7
-9 5 -17 -3 -19 31 -2 48 8 8 11 15 6 15 -5 0 -14 -5 -19 -10 -7 -7 -11 -6
-11 4 0 8 4 13 8 11 10 -7 33 24 25 32 -4 4 -11 1 -16 -7 -7 -11 -10 -11 -10
-2 0 7 7 15 15 18 8 4 15 10 15 16 0 5 -4 7 -9 4 -10 -7 -9 13 2 31 4 6 3 14
-3 18 -15 9 -2 25 15 18 8 -3 15 -1 15 4 0 5 11 9 24 9 14 0 22 -4 20 -8z
m589 -13 c-3 -9 -8 -14 -10 -11 -3 3 -2 9 2 15 9 16 15 13 8 -4z m267 1 c0 -3
-4 -8 -10 -11 -5 -3 -10 -1 -10 4 0 6 5 11 10 11 6 0 10 -2 10 -4z m247 -2
c-3 -3 -12 -4 -19 -1 -8 3 -5 6 6 6 11 1 17 -2 13 -5z m-330 -18 c0 -8 -6 -12
-14 -9 -7 3 -10 9 -7 14 8 14 21 11 21 -5z m372 1 c8 -11 5 -16 -14 -25 -17
-8 -23 -17 -20 -33 4 -17 2 -20 -7 -11 -17 17 -18 51 -1 45 8 -3 13 -2 12 3
-6 33 10 44 30 21z m-243 -82 c-11 -8 -22 -12 -25 -9 -6 6 19 24 34 24 6 -1 1
-7 -9 -15z m192 -10 c-3 -3 -9 2 -12 12 -6 14 -5 15 5 6 7 -7 10 -15 7 -18z
m-1471 -31 c-3 -3 -12 -4 -19 -1 -8 3 -5 6 6 6 11 1 17 -2 13 -5z m433 -31 c0
-19 -13 -9 -16 12 -1 8 2 13 7 9 5 -3 9 -12 9 -21z m904 12 c3 -9 12 -12 23
-9 15 5 16 4 3 -5 -12 -8 -12 -11 -1 -11 9 0 11 -7 8 -21 -5 -17 -3 -18 9 -8
11 9 18 9 26 1 9 -9 9 -12 -1 -12 -7 0 -10 -4 -7 -8 8 -13 49 -7 54 8 3 7 0
10 -5 7 -6 -4 -19 3 -29 16 -19 22 -19 22 1 6 11 -9 31 -15 45 -13 14 1 19 0
13 -2 -17 -7 -17 -25 -1 -22 26 6 36 22 21 36 -18 18 -16 29 6 42 20 10 24 -2
8 -27 -4 -6 -3 -14 3 -18 6 -4 8 -11 5 -16 -4 -5 -1 -9 5 -9 6 0 10 -8 8 -17
-2 -14 4 -18 29 -18 18 0 33 -4 32 -9 0 -5 5 -13 13 -18 9 -7 7 -8 -7 -3 -11
4 -26 7 -32 6 -37 -3 -43 -5 -43 -11 0 -14 13 -19 29 -10 10 5 23 5 31 0 8 -5
22 -4 32 1 15 8 16 14 8 32 -11 21 -11 21 4 3 9 -11 16 -23 16 -27 0 -3 11 -5
25 -3 l25 2 -22 -30 c-13 -16 -31 -42 -40 -56 -10 -15 -18 -23 -18 -19 0 14
20 47 42 69 11 11 17 22 14 25 -3 3 -12 -2 -21 -11 -9 -9 -21 -16 -26 -16 -6
0 -8 -4 -5 -9 3 -4 -1 -17 -10 -27 -11 -14 -14 -15 -13 -4 3 27 -1 40 -11 40
-5 0 -7 -6 -4 -14 3 -8 1 -17 -5 -21 -7 -3 -8 0 -5 9 7 19 -12 22 -20 4 -3 -7
-3 1 -1 17 4 28 3 29 -10 11 -8 -10 -12 -23 -8 -29 3 -6 1 -7 -5 -3 -9 5 -9
13 -2 26 7 13 7 21 0 25 -5 3 -10 0 -11 -7 0 -10 -2 -10 -6 0 -2 6 -9 12 -14
12 -6 0 -7 -5 -4 -10 3 -5 1 -10 -5 -10 -7 0 -9 8 -5 20 5 15 2 18 -15 15 -12
-2 -29 -10 -39 -17 -14 -11 -14 -11 -4 2 14 18 13 60 0 60 -5 0 -7 -6 -4 -13
7 -19 -6 -37 -32 -42 -12 -2 -19 0 -16 6 8 11 -19 51 -28 42 -4 -3 -2 -12 5
-20 6 -7 8 -16 4 -20 -3 -3 -6 -1 -6 7 0 10 -3 10 -15 0 -12 -10 -13 -8 -10
10 3 16 0 20 -10 16 -8 -3 -15 -1 -15 4 0 10 7 12 40 14 23 2 21 48 -3 74 -11
12 -16 22 -10 22 6 0 13 -7 17 -15z m-394 -70 c0 4 8 1 18 -7 9 -8 27 -14 39
-13 18 1 20 -2 13 -15 -5 -10 -6 -20 -2 -24 3 -4 -2 -4 -11 0 -10 4 -16 12
-14 19 3 6 -1 12 -8 12 -8 0 -11 -7 -7 -15 4 -11 1 -14 -11 -9 -9 3 -19 2 -22
-3 -6 -10 7 -14 35 -11 13 2 13 1 0 -8 -8 -5 -11 -13 -7 -17 3 -4 15 -1 24 7
16 13 17 12 4 -3 -8 -12 -22 -16 -38 -13 -20 3 -23 1 -18 -13 11 -27 11 -30 0
-29 -5 1 -9 8 -7 15 2 8 -1 11 -8 7 -7 -4 -9 -16 -7 -27 3 -11 3 -17 0 -14 -4
3 -12 1 -20 -6 -9 -7 -17 -8 -24 -1 -7 7 -2 15 14 26 16 10 23 23 21 39 -1 13
-3 24 -4 26 -2 1 -3 7 -4 12 0 6 -7 15 -15 19 -11 7 -9 10 6 15 15 5 19 14 17
32 -2 25 -2 25 17 8 10 -9 19 -13 19 -9z m-869 -18 c-10 -9 -11 -8 -5 6 3 10
9 15 12 12 3 -3 0 -11 -7 -18z m43 15 c3 -5 -1 -9 -9 -9 -8 0 -12 4 -9 9 3 4
7 8 9 8 2 0 6 -4 9 -8z m287 -9 c13 -16 12 -17 -3 -4 -10 7 -18 15 -18 17 0 8
8 3 21 -13z m362 3 c4 -11 1 -13 -10 -9 -11 4 -14 2 -9 -5 5 -8 2 -10 -9 -6
-14 6 -14 8 2 20 10 7 19 14 19 14 1 0 4 -7 7 -14z m117 -53 c0 -11 -20 -40
-20 -29 0 5 -7 3 -15 -4 -13 -11 -14 -10 -9 4 3 9 13 16 21 16 8 0 11 5 8 10
-3 6 -1 10 4 10 6 0 11 -3 11 -7z m580 -17 c0 -2 -7 -9 -15 -16 -13 -11 -14
-10 -9 4 5 14 24 23 24 12z m230 -48 c0 -6 -3 -8 -7 -5 -3 4 -13 1 -22 -6 -14
-11 -14 -10 -2 6 15 20 31 22 31 5z m-1031 -24 c-6 -8 -15 -12 -18 -8 -3 4 0
9 7 11 6 3 9 10 6 15 -4 7 -2 8 5 4 9 -6 9 -11 0 -22z m1048 -6 c2 -17 0 -19
-7 -8 -5 8 -6 18 -4 22 8 12 10 10 11 -14z m125 -23 c4 -5 4 -13 2 -17 -3 -4
0 -8 7 -8 14 0 -21 -29 -35 -30 -6 0 -2 6 9 13 13 10 15 16 6 21 -6 4 -8 12
-5 18 5 7 2 8 -6 3 -13 -8 -32 13 -23 28 5 8 31 -8 45 -28z m-425 10 c4 -4 3
-5 -4 -2 -6 4 -13 2 -15 -5 -3 -8 -6 -6 -10 4 -7 17 15 19 29 3z m269 -1 c18
-15 18 -15 -3 -4 -18 8 -24 7 -32 -7 -12 -20 -14 -13 -5 11 8 20 15 20 40 0z
m-1251 -24 c-2 -11 1 -20 7 -20 6 0 8 -3 5 -6 -4 -4 -13 -2 -20 4 -8 7 -17 9
-20 5 -4 -3 -7 -2 -7 4 0 6 7 14 16 17 8 3 12 11 8 17 -4 7 -3 9 4 5 6 -3 9
-15 7 -26z m46 7 c8 8 18 9 31 2 20 -11 25 -29 7 -29 -5 0 -7 5 -4 10 3 6 2
10 -3 10 -5 0 -14 -10 -21 -22 -11 -23 -11 -23 -5 2 6 22 5 23 -10 11 -9 -7
-16 -11 -16 -8 0 3 -3 14 -6 24 -5 15 -4 15 5 3 8 -11 13 -12 22 -3z m693 -4
c4 -10 4 -14 0 -10 -4 4 -13 2 -21 -4 -16 -14 -17 -3 0 16 15 18 14 18 21 -2z
m506 3 c0 -2 -8 -10 -17 -17 -16 -13 -17 -12 -4 4 13 16 21 21 21 13z m165
-56 c-3 -5 -2 -10 3 -10 5 0 9 -7 9 -15 0 -12 -3 -12 -17 3 -12 12 -14 19 -6
24 15 10 18 10 11 -2z m-2050 -49 c3 -5 2 -12 -3 -15 -5 -3 -9 1 -9 9 0 17 3
19 12 6z m1845 -11 c0 -5 -8 -10 -17 -10 -15 0 -16 2 -3 10 19 12 20 12 20 0z"/>
<path d="M1020 1305 c-7 -9 -8 -15 -2 -15 5 0 12 7 16 15 3 8 4 15 2 15 -2 0
-9 -7 -16 -15z"/>
<path d="M1035 1281 c-3 -5 -2 -12 3 -15 5 -3 9 1 9 9 0 17 -3 19 -12 6z"/>
<path d="M982 1211 c7 -12 18 -17 27 -13 14 6 14 7 -1 10 -10 2 -18 8 -18 13
0 5 -5 9 -10 9 -6 0 -6 -7 2 -19z"/>
<path d="M804 1283 c-16 -12 -16 -13 -1 -13 9 0 17 5 17 10 0 6 6 5 14 -2 8
-7 11 -17 8 -22 -3 -5 0 -6 7 -2 8 6 9 12 2 20 -6 7 -9 15 -6 18 11 11 -24 4
-41 -9z"/>
<path d="M784 1248 c-11 -17 -12 -48 -2 -42 4 3 8 -1 8 -8 0 -9 3 -9 8 -2 4 6
17 10 29 9 12 -1 20 2 17 7 -3 4 -16 6 -30 4 -19 -4 -24 -1 -22 12 2 9 8 20
13 24 6 5 6 8 -2 8 -6 0 -15 -6 -19 -12z"/>
<path d="M816 1245 c-3 -8 -1 -15 4 -15 6 0 10 7 10 15 0 8 -2 15 -4 15 -2 0
-6 -7 -10 -15z"/>
<path d="M1553 1133 c4 -3 1 -13 -6 -22 -11 -14 -10 -14 5 -2 16 12 16 31 1
31 -4 0 -3 -3 0 -7z"/>
<path d="M670 540 c0 -5 5 -10 11 -10 5 0 7 5 4 10 -3 6 -8 10 -11 10 -2 0 -4
-4 -4 -10z"/>
<path d="M716 441 c-3 -5 1 -14 10 -21 8 -7 13 -19 10 -26 -3 -7 -1 -16 5 -20
6 -4 4 -13 -7 -25 -16 -17 -15 -18 6 -14 27 5 39 15 19 15 -11 0 -11 2 1 10 8
5 10 10 5 10 -6 0 -12 10 -12 22 -1 13 -9 28 -17 34 -9 6 -13 14 -9 17 3 4 4
7 0 7 -3 0 -8 -4 -11 -9z"/>
<path d="M803 361 c-10 -16 -9 -20 8 -24 24 -7 32 5 16 27 -11 15 -13 15 -24
-3z"/>
<path d="M590 326 c0 -2 7 -9 15 -16 13 -11 14 -10 9 4 -5 14 -24 23 -24 12z"/>
<path d="M1165 561 c-3 -5 -2 -12 3 -15 5 -3 9 1 9 9 0 17 -3 19 -12 6z"/>
<path d="M1244 542 c4 -7 2 -12 -5 -12 -8 0 -8 -4 1 -15 10 -13 9 -19 -5 -35
-10 -11 -15 -23 -12 -27 4 -3 7 -1 7 6 0 7 5 9 10 6 8 -5 7 -11 -1 -21 -17
-20 0 -17 19 4 10 9 14 13 10 8 -13 -17 -9 -25 12 -23 12 1 16 5 11 10 -5 5
-7 16 -4 23 3 8 1 14 -5 14 -11 0 -11 18 1 38 5 6 6 13 3 13 -3 1 -9 2 -13 3
-5 1 -14 5 -22 10 -10 6 -12 5 -7 -2z m30 -24 c-3 -4 -9 -8 -15 -8 -5 0 -9 4
-9 8 0 5 7 9 15 9 8 0 12 -4 9 -9z m-9 -35 c-2 -10 -4 -19 -4 -21 -1 -2 -6 0
-11 3 -8 5 -7 11 1 21 15 18 18 18 14 -3z"/>
<path d="M1376 542 c-3 -4 4 -9 15 -9 23 -2 25 3 4 10 -8 4 -16 3 -19 -1z"/>
<path d="M1412 521 c-11 -7 -11 -9 0 -14 9 -3 15 1 15 9 0 8 -1 14 -1 14 -1 0
-7 -4 -14 -9z"/>
<path d="M1215 500 c3 -5 8 -10 11 -10 2 0 4 5 4 10 0 6 -5 10 -11 10 -5 0 -7
-4 -4 -10z"/>
<path d="M1146 481 c-4 -5 -2 -12 3 -15 5 -4 12 -2 15 3 4 5 2 12 -3 15 -5 4
-12 2 -15 -3z"/>
<path d="M1190 481 c0 -6 4 -13 10 -16 6 -3 7 1 4 9 -7 18 -14 21 -14 7z"/>
<path d="M1390 480 c0 -5 7 -7 15 -4 8 4 15 8 15 10 0 2 -7 4 -15 4 -8 0 -15
-4 -15 -10z"/>
<path d="M1401 433 c7 -12 15 -20 18 -17 3 2 -3 12 -13 22 -17 16 -18 16 -5
-5z"/>
<path d="M1107 412 c-12 -13 -13 -22 -6 -32 9 -13 10 -13 6 0 -2 8 3 20 12 27
9 6 13 14 10 17 -3 3 -13 -2 -22 -12z"/>
<path d="M1246 403 c-6 -14 -5 -15 5 -6 7 7 10 15 7 18 -3 3 -9 -2 -12 -12z"/>
<path d="M1123 343 c-15 -5 -17 -23 -4 -23 5 0 11 7 15 15 3 8 4 15 3 14 -1 0
-8 -3 -14 -6z"/>
<path d="M1421 344 c-1 -18 26 -37 34 -24 3 5 0 10 -9 10 -8 0 -17 6 -19 13
-4 7 -6 8 -6 1z"/>
<path d="M1161 324 c0 -11 3 -14 6 -6 3 7 2 16 -1 19 -3 4 -6 -2 -5 -13z"/>
<path d="M1395 330 c3 -5 8 -10 11 -10 2 0 4 5 4 10 0 6 -5 10 -11 10 -5 0 -7
-4 -4 -10z"/>
<path d="M880 556 c0 -3 9 -10 20 -16 11 -6 20 -8 20 -6 0 3 -9 10 -20 16 -11
6 -20 8 -20 6z"/>
<path d="M2075 530 c-3 -5 -1 -10 4 -10 6 0 11 5 11 10 0 6 -2 10 -4 10 -3 0
-8 -4 -11 -10z"/>
<path d="M2070 379 c0 -5 5 -7 10 -4 6 3 10 8 10 11 0 2 -4 4 -10 4 -5 0 -10
-5 -10 -11z"/>
<path d="M1954 325 c-4 -8 -11 -12 -16 -9 -6 4 -2 -6 8 -22 10 -16 19 -30 20
-32 0 -1 7 5 15 15 12 14 12 16 0 8 -11 -6 -13 -4 -8 8 3 9 2 19 -4 22 -5 4
-7 11 -4 16 4 5 4 9 0 9 -3 0 -8 -7 -11 -15z"/>
<path d="M2076 321 c-4 -5 -15 -8 -26 -6 -24 5 -42 -16 -30 -35 9 -13 10 -13
10 0 0 13 1 13 10 0 8 -13 10 -13 10 0 0 9 6 6 16 -9 15 -21 18 -22 26 -7 5 9
15 13 21 9 7 -3 4 2 -5 13 -9 10 -17 23 -16 27 0 14 -10 19 -16 8z m9 -10 c-3
-5 -1 -12 5 -16 13 -8 3 -25 -13 -25 -7 0 -6 4 3 10 15 10 6 13 -42 13 -10 0
-15 3 -13 8 3 4 14 6 25 4 11 -2 22 0 25 6 4 5 8 9 11 9 3 0 3 -4 -1 -9z"/>
<path d="M2137 236 c-4 -11 3 -14 29 -11 20 1 40 7 47 14 13 13 -2 14 -22 2
-9 -6 -22 -6 -32 0 -12 6 -19 4 -22 -5z"/>
<path d="M1490 321 c0 -5 6 -12 13 -14 7 -4 3 -8 -11 -13 -18 -5 -20 -9 -11
-20 6 -8 8 -14 4 -14 -4 0 -2 -6 4 -13 6 -8 7 -18 3 -23 -4 -4 0 -3 9 4 9 6
19 9 22 5 4 -3 7 -2 7 4 0 6 -7 14 -16 17 -13 5 -14 9 -4 21 7 8 16 13 20 10
5 -3 7 3 6 12 -2 10 -7 18 -12 18 -5 0 -15 4 -21 8 -7 5 -13 4 -13 -2z m40
-14 c0 -2 -10 -12 -22 -23 l-23 -19 19 23 c18 21 26 27 26 19z"/>
<path d="M1275 2410 c4 -6 11 -8 16 -5 14 9 11 15 -7 15 -8 0 -12 -5 -9 -10z"/>
<path d="M1475 2140 c-2 -3 0 -12 6 -20 7 -12 9 -12 9 -1 0 11 3 11 17 0 11
-10 14 -10 9 -1 -7 11 6 17 29 12 5 -1 7 2 2 6 -9 9 -67 13 -72 4z"/>
<path d="M1400 2111 c0 -7 -5 -9 -12 -5 -7 5 -8 3 -3 -5 5 -9 10 -10 18 -2 6
6 8 14 4 18 -4 3 -7 1 -7 -6z"/>
<path d="M1196 2072 c-3 -5 1 -9 9 -9 8 0 12 4 9 9 -3 4 -7 8 -9 8 -2 0 -6 -4
-9 -8z"/>
<path d="M1110 1909 c0 -5 -4 -8 -8 -5 -5 3 -9 -1 -9 -9 0 -13 4 -12 19 2 21
18 22 23 8 23 -5 0 -10 -5 -10 -11z"/>
<path d="M1344 1888 c-10 -13 -12 -17 -4 -10 18 15 34 16 24 0 -4 -7 -3 -8 4
-4 6 4 9 13 5 21 -7 19 -6 19 -29 -7z"/>
<path d="M1270 1881 c0 -6 4 -13 10 -16 6 -3 7 1 4 9 -7 18 -14 21 -14 7z"/>
<path d="M1270 1740 c0 -5 5 -10 11 -10 5 0 7 5 4 10 -3 6 -8 10 -11 10 -2 0
-4 -4 -4 -10z"/>
<path d="M1190 1720 c0 -5 5 -10 11 -10 5 0 7 5 4 10 -3 6 -8 10 -11 10 -2 0
-4 -4 -4 -10z"/>
<path d="M1771 1677 c-1 -21 21 -18 27 4 3 12 2 12 -6 0 -8 -11 -10 -11 -15 0
-4 10 -6 8 -6 -4z"/>
<path d="M1416 1663 c-6 -14 -5 -15 5 -6 7 7 10 15 7 18 -3 3 -9 -2 -12 -12z"/>
<path d="M1400 1636 c14 -18 13 -18 -10 -11 -24 7 -24 7 -5 -8 12 -10 24 -12
31 -6 6 5 13 7 15 4 3 -2 6 6 6 18 2 16 0 18 -7 8 -7 -13 -11 -13 -27 0 -17
13 -17 13 -3 -5z"/>
<path d="M1814 1628 c-4 -7 -4 -10 1 -6 4 4 14 0 22 -10 13 -15 13 -15 3 6
-12 25 -16 27 -26 10z"/>
<path d="M1030 1559 c0 -5 5 -7 10 -4 6 3 10 8 10 11 0 2 -4 4 -10 4 -5 0 -10
-5 -10 -11z"/>
<path d="M1507 1435 c3 -8 9 -12 14 -9 12 7 11 11 -5 17 -10 4 -13 1 -9 -8z"/>
<path d="M1365 1429 c-4 -6 -5 -12 -2 -15 2 -3 7 2 10 11 7 17 1 20 -8 4z"/>
<path d="M1185 1380 c-3 -5 1 -10 10 -10 9 0 13 5 10 10 -3 6 -8 10 -10 10 -2
0 -7 -4 -10 -10z"/>
<path d="M1536 1373 c-4 -10 -4 -14 0 -10 4 4 16 0 26 -10 24 -21 23 -12 -1
16 -17 20 -19 20 -25 4z"/>
<path d="M1285 1370 c-4 -6 -12 -7 -18 -4 -7 4 -8 3 -4 -1 13 -15 34 -14 34 1
0 17 -4 18 -12 4z"/>
<path d="M645 1360 c3 -5 8 -10 11 -10 2 0 4 5 4 10 0 6 -5 10 -11 10 -5 0 -7
-4 -4 -10z"/>
<path d="M1731 1329 c-5 -13 -10 -18 -10 -10 -1 8 -4 12 -7 9 -3 -4 0 -16 6
-28 11 -21 11 -21 -17 -5 -17 11 -21 12 -10 2 9 -8 17 -22 17 -31 0 -9 5 -16
11 -16 5 0 7 -5 3 -11 -4 -8 -12 -3 -20 12 -7 13 -13 19 -14 12 0 -17 68 -95
74 -84 4 5 0 12 -6 14 -9 4 -7 6 3 6 9 1 22 8 29 16 7 8 17 12 23 8 6 -3 7 -1
3 6 -4 6 -3 18 3 25 6 7 9 24 7 37 -3 13 -5 28 -5 32 -1 5 -5 5 -11 2 -5 -3
-10 -1 -10 6 0 7 -3 9 -7 5 -5 -4 0 -14 10 -21 10 -7 14 -16 8 -19 -5 -4 -12
-2 -16 4 -3 5 -11 10 -16 10 -6 0 -7 -5 -3 -12 4 -7 3 -8 -4 -4 -9 5 -9 13 -1
29 7 12 8 19 4 15 -5 -4 -14 -3 -21 3 -11 9 -16 6 -23 -12z m21 -16 c-6 -3 -9
-10 -6 -15 4 -6 2 -8 -4 -5 -5 4 -8 16 -5 28 4 15 8 17 17 8 8 -8 8 -13 -2
-16z m68 -39 c0 -7 -7 -17 -16 -22 -9 -5 -16 -13 -16 -18 1 -5 -6 -8 -15 -6
-10 2 -12 -1 -7 -9 5 -8 3 -10 -6 -4 -10 6 -7 12 11 26 13 10 28 19 32 19 5 0
5 5 2 10 -4 6 -11 7 -17 4 -6 -4 -8 -3 -5 3 9 14 37 12 37 -3z m-76 -60 c5
-14 4 -15 -9 -4 -17 14 -19 20 -6 20 5 0 12 -7 15 -16z"/>
<path d="M1892 1328 c-8 -8 -9 -15 -1 -25 9 -10 8 -13 -2 -13 -10 0 -10 -3 -1
-12 7 -7 12 -17 12 -22 0 -6 -5 -3 -11 7 -5 9 -15 17 -21 17 -6 0 -3 -12 7
-26 9 -15 12 -23 6 -20 -7 5 -9 1 -5 -9 5 -12 9 -13 20 -4 16 13 19 -1 4 -19
-6 -6 -7 -10 -4 -7 4 3 12 -3 19 -12 9 -13 14 -13 20 -3 5 9 4 11 -3 6 -7 -4
-12 -3 -12 2 0 17 13 22 27 10 7 -6 16 -8 20 -4 3 3 1 6 -6 6 -7 0 -9 5 -6 10
4 6 11 8 16 5 5 -4 17 -1 26 5 15 9 14 10 -7 6 -14 -3 -19 -3 -12 0 6 3 10 10
6 15 -3 5 -14 -1 -24 -13 -11 -13 -19 -17 -20 -10 0 6 5 12 11 12 5 0 8 4 5 9
-4 5 -2 11 4 13 6 2 4 14 -4 30 -10 19 -11 30 -4 34 7 5 8 2 3 -6 -5 -8 -4
-11 1 -7 6 3 11 -3 11 -14 2 -23 21 -49 35 -49 5 0 0 12 -11 27 -20 24 -20 27
-5 45 10 11 12 18 6 18 -7 0 -12 -5 -12 -11 0 -6 -7 -3 -16 5 -19 19 -25 20
-21 4 1 -7 -4 -12 -11 -10 -8 1 -11 -2 -6 -9 5 -9 2 -10 -10 -6 -10 4 -20 7
-23 7 -3 0 0 7 7 15 15 18 9 20 -8 3z m52 -47 c4 -5 -3 -7 -14 -4 -23 6 -26
13 -6 13 8 0 17 -4 20 -9z m-9 -21 c3 -6 -1 -7 -9 -4 -18 7 -21 14 -7 14 6 0
13 -4 16 -10z"/>
<path d="M1855 1300 c3 -5 8 -10 11 -10 2 0 4 5 4 10 0 6 -5 10 -11 10 -5 0
-7 -4 -4 -10z"/>
<path d="M1396 1265 c-9 -9 -16 -13 -16 -9 0 3 -7 1 -15 -6 -8 -7 -13 -16 -10
-20 3 -5 1 -11 -5 -15 -6 -4 -8 -11 -5 -16 4 -5 1 -9 -4 -9 -6 0 -11 6 -11 13
0 9 -3 8 -9 -2 -7 -11 -9 -11 -13 0 -3 9 -6 8 -11 -5 -5 -11 -3 -15 5 -10 7 5
8 3 3 -6 -5 -9 -4 -11 3 -6 8 5 10 2 6 -8 -6 -17 7 -22 20 -8 12 11 76 9 76
-3 0 -5 5 -3 10 5 7 11 10 11 10 2 0 -7 5 -10 11 -6 8 5 8 9 -1 14 -7 4 -8 10
-3 13 5 3 15 -3 22 -15 9 -15 10 -18 0 -13 -8 5 -10 4 -5 -4 6 -8 12 -9 20 -2
7 6 16 9 20 6 3 -3 2 0 -3 6 -5 6 -7 19 -3 28 5 13 3 14 -9 4 -11 -9 -18 -8
-33 3 -14 10 -16 14 -5 14 10 1 9 4 -4 11 -13 8 -15 14 -7 23 18 22 -14 41
-34 21z m23 -22 c-8 -9 -9 -17 -3 -21 16 -11 10 -45 -8 -48 -21 -3 -22 1 -9
25 8 13 5 17 -12 18 -12 0 -16 -1 -9 -4 6 -3 12 -9 12 -15 0 -6 -7 -5 -17 3
-15 11 -16 11 -5 -1 16 -19 15 -31 -2 -24 -11 4 -15 30 -6 42 2 2 6 14 9 28 0
4 9 0 19 -7 9 -7 14 -9 10 -5 -10 12 11 38 24 30 5 -3 4 -12 -3 -21z m-84 -62
c3 -5 2 -12 -3 -15 -5 -3 -9 1 -9 9 0 17 3 19 12 6z"/>
<path d="M1847 1249 c4 -13 8 -18 11 -10 2 7 -1 18 -6 23 -8 8 -9 4 -5 -13z"/>
<path d="M1264 1201 c7 -11 -20 -35 -31 -28 -5 3 -20 -4 -33 -15 -16 -12 -19
-18 -8 -14 18 5 52 -20 43 -34 -7 -11 -54 -10 -61 2 -3 5 -11 4 -19 -2 -8 -7
-20 -8 -26 -4 -7 4 -9 3 -5 -4 3 -5 1 -12 -6 -14 -7 -3 -5 -7 6 -11 11 -4 15
-3 11 4 -10 16 28 6 43 -11 10 -13 11 -12 5 5 -6 18 -5 19 12 5 11 -9 16 -10
11 -2 -4 7 -2 12 8 12 8 0 22 3 30 6 12 5 15 2 10 -9 -3 -9 -13 -18 -22 -20
-15 -4 -15 -5 0 -6 10 0 22 8 28 18 5 11 19 23 31 26 14 5 19 12 15 23 -5 13
-2 12 9 -2 8 -11 15 -16 15 -12 0 5 7 3 15 -4 8 -7 15 -9 15 -6 0 4 8 3 17 -3
13 -7 25 -4 45 11 34 24 35 34 6 34 -13 1 -36 3 -53 5 -20 2 -29 0 -27 -9 4
-21 -16 -13 -48 18 -17 17 -26 30 -20 30 6 0 8 5 5 10 -3 6 -11 10 -16 10 -6
0 -8 -4 -5 -9z m27 -42 c1 -5 2 -15 3 -21 4 -23 -5 -29 -22 -16 -14 11 -15 10
-8 -7 9 -24 -3 -13 -19 17 -6 13 -17 22 -24 20 -7 -1 -10 2 -6 8 5 8 11 8 20
0 9 -8 14 -7 18 5 6 15 36 11 38 -6z m79 -29 c8 -15 8 -18 -3 -14 -8 3 -14 11
-14 19 0 20 4 19 17 -5z m45 4 c13 -5 14 -8 3 -15 -19 -13 -28 -11 -28 6 0 17
2 18 25 9z m-241 -32 c3 -5 -1 -9 -9 -9 -8 0 -12 4 -9 9 3 4 7 8 9 8 2 0 6 -4
9 -8z"/>
<path d="M1256 1153 c-4 -9 -4 -14 0 -10 4 4 13 -1 20 -11 12 -16 13 -16 10 1
-4 28 -22 41 -30 20z"/>
<path d="M1994 1168 l-19 -23 23 19 c21 18 27 26 19 26 -2 0 -12 -10 -23 -22z"/>
<path d="M1950 1159 c0 -5 5 -7 10 -4 6 3 10 8 10 11 0 2 -4 4 -10 4 -5 0 -10
-5 -10 -11z"/>
<path d="M1938 1138 c5 -5 16 -8 23 -6 8 3 3 7 -10 11 -17 4 -21 3 -13 -5z"/>
<path d="M2070 1120 c0 -5 5 -10 10 -10 6 0 10 5 10 10 0 6 -4 10 -10 10 -5 0
-10 -4 -10 -10z"/>
<path d="M2030 1100 c0 -5 5 -10 11 -10 5 0 7 5 4 10 -3 6 -8 10 -11 10 -2 0
-4 -4 -4 -10z"/>
<path d="M942 1066 c0 -12 2 -16 6 -11 11 16 33 17 51 3 14 -11 14 -11 4 3 -7
9 -11 18 -9 20 3 2 -8 4 -23 4 -20 1 -27 -4 -29 -19z"/>
<path d="M1010 1081 c0 -10 19 -25 25 -20 1 2 -3 10 -11 17 -8 7 -14 8 -14 3z"/>
<path d="M1150 1061 c0 -6 4 -13 10 -16 6 -3 7 1 4 9 -7 18 -14 21 -14 7z"/>
<path d="M1508 1063 c7 -3 16 -2 19 1 4 3 -2 6 -13 5 -11 0 -14 -3 -6 -6z"/>
<path d="M1373 1043 c1 -15 5 -19 13 -13 6 6 13 8 16 5 2 -3 5 2 5 10 0 10 -4
12 -13 4 -8 -7 -14 -6 -17 3 -3 7 -4 3 -4 -9z"/>
<path d="M1710 1049 c0 -5 5 -7 10 -4 6 3 10 8 10 11 0 2 -4 4 -10 4 -5 0 -10
-5 -10 -11z"/>
<path d="M1210 1039 c0 -5 5 -7 10 -4 6 3 10 8 10 11 0 2 -4 4 -10 4 -5 0 -10
-5 -10 -11z"/>
<path d="M1435 1030 c10 -11 20 -20 23 -20 3 0 -3 9 -13 20 -10 11 -20 20 -23
20 -3 0 3 -9 13 -20z"/>
<path d="M1164 1015 c-4 -8 -11 -12 -17 -8 -6 3 -7 1 -3 -5 10 -16 14 -15 26
8 6 11 8 20 5 20 -3 0 -8 -7 -11 -15z"/>
<path d="M1630 1020 c0 -5 7 -7 15 -4 8 4 15 8 15 10 0 2 -7 4 -15 4 -8 0 -15
-4 -15 -10z"/>
<path d="M1200 1000 c6 -11 15 -18 21 -15 13 9 11 13 -12 25 -19 11 -20 10 -9
-10z"/>
<path d="M920 1001 c0 -6 4 -13 10 -16 6 -3 7 1 4 9 -7 18 -14 21 -14 7z"/>
<path d="M2028 983 c7 -3 16 -2 19 1 4 3 -2 6 -13 5 -11 0 -14 -3 -6 -6z"/>
<path d="M2110 878 c0 -4 4 -8 9 -8 6 0 12 4 15 8 3 5 -1 9 -9 9 -8 0 -15 -4
-15 -9z"/>
<path d="M433 849 c-2 -19 11 -26 21 -10 3 5 0 14 -7 19 -10 8 -13 6 -14 -9z"/>
<path d="M1035 859 c-4 -6 -5 -12 -2 -15 2 -3 7 2 10 11 7 17 1 20 -8 4z"/>
<path d="M993 845 c0 -8 4 -12 9 -9 5 3 6 10 3 15 -9 13 -12 11 -12 -6z"/>
<path d="M2066 847 c3 -10 9 -15 12 -12 3 3 0 11 -7 18 -10 9 -11 8 -5 -6z"/>
<path d="M695 840 c3 -5 8 -10 11 -10 2 0 4 5 4 10 0 6 -5 10 -11 10 -5 0 -7
-4 -4 -10z"/>
<path d="M1633 825 c0 -8 4 -12 8 -9 4 2 13 -5 19 -17 9 -15 15 -18 23 -10 8
8 8 14 -1 23 -7 7 -12 8 -12 3 0 -4 -8 -1 -18 8 -15 14 -19 15 -19 2z"/>
<path d="M1755 820 c-3 -5 0 -10 9 -10 8 0 16 -5 18 -12 3 -7 7 -4 12 7 4 11
4 16 0 12 -4 -4 -13 -2 -20 4 -8 7 -14 7 -19 -1z"/>
<path d="M1814 812 c3 -5 0 -13 -6 -15 -9 -4 -10 -6 -1 -6 17 -1 25 16 12 25
-7 4 -9 3 -5 -4z"/>
<path d="M1636 787 c3 -10 9 -15 12 -12 3 3 0 11 -7 18 -10 9 -11 8 -5 -6z"/>
<path d="M1894 779 c1 -6 5 -10 9 -10 4 1 14 1 22 1 8 0 15 5 15 10 0 7 -6 7
-19 0 -13 -7 -21 -7 -24 0 -3 6 -5 6 -3 -1z"/>
<path d="M1495 771 c-6 -11 13 -26 22 -17 4 3 1 6 -6 6 -7 0 -9 5 -6 10 3 6 4
10 1 10 -3 0 -7 -4 -11 -9z"/>
<path d="M1164 754 c-18 -14 -18 -15 4 -4 12 6 22 13 22 15 0 8 -5 6 -26 -11z"/>
<path d="M1550 741 c0 -5 13 -20 30 -34 23 -20 26 -26 14 -31 -9 -3 -12 -11
-8 -18 5 -7 2 -9 -8 -5 -9 3 -19 3 -23 -1 -4 -4 -12 -7 -18 -7 -5 0 -11 -10
-12 -22 -1 -12 2 -20 6 -17 4 2 10 -1 12 -6 3 -6 4 -5 3 2 -5 19 13 50 24 43
6 -3 18 -1 27 4 14 8 15 10 3 11 -13 0 -13 1 0 10 20 13 33 13 25 0 -3 -6 1
-7 10 -4 21 9 13 30 -10 26 -16 -3 -17 -1 -6 12 7 8 11 21 8 28 -3 8 -6 6 -6
-5 -1 -11 -6 -15 -13 -11 -7 4 -8 3 -4 -4 4 -7 2 -12 -3 -12 -15 0 -14 27 1
32 8 3 6 7 -5 11 -9 3 -16 3 -14 -1 1 -4 -2 -7 -8 -7 -5 0 -9 3 -7 8 1 4 -2 7
-8 7 -5 0 -10 -4 -10 -9z"/>
<path d="M2160 680 c5 -10 7 -20 4 -22 -3 -3 2 -8 11 -11 8 -4 15 -2 15 4 0 6
6 7 13 3 7 -4 9 -3 4 2 -5 5 -14 9 -20 9 -7 0 -11 7 -11 16 1 9 -5 16 -12 16
-9 0 -10 -5 -4 -17z"/>
<path d="M506 681 c-4 -5 -2 -12 3 -15 5 -4 12 -2 15 3 4 5 2 12 -3 15 -5 4
-12 2 -15 -3z"/>
<path d="M2020 661 c0 -10 19 -25 25 -20 1 2 -3 10 -11 17 -8 7 -14 8 -14 3z"/>
<path d="M1994 575 c-13 -20 -19 -23 -30 -14 -11 9 -14 8 -14 -1 0 -7 -7 -10
-15 -7 -8 4 -17 1 -21 -5 -4 -7 -3 -8 4 -4 7 4 12 2 12 -5 0 -9 3 -9 14 0 8 6
18 11 22 9 14 -4 55 22 49 32 -3 4 1 11 7 13 10 4 10 6 1 6 -7 1 -20 -10 -29
-24z"/>
<path d="M513 570 c-1 -11 2 -20 7 -20 4 0 7 7 6 15 -3 23 -12 26 -13 5z"/>
<path d="M496 532 c-2 -4 -1 -14 4 -22 7 -11 9 -9 7 8 -1 24 -3 26 -11 14z"/>
<path d="M1686 495 c-9 -26 -7 -32 5 -12 6 10 9 21 6 23 -2 3 -7 -2 -11 -11z"/>
<path d="M507 471 c-3 -13 0 -18 7 -15 7 3 13 11 13 19 0 22 -14 18 -20 -4z"/>
<path d="M2116 438 c3 -5 10 -6 15 -3 13 9 11 12 -6 12 -8 0 -12 -4 -9 -9z"/>
<path d="M2120 406 c0 -2 8 -10 18 -17 15 -13 16 -12 3 4 -13 16 -21 21 -21
13z"/>
<path d="M1505 360 c-3 -5 -1 -10 4 -10 6 0 11 5 11 10 0 6 -2 10 -4 10 -3 0
-8 -4 -11 -10z"/>
<path d="M435 341 c-3 -5 -2 -12 3 -15 5 -3 9 1 9 9 0 17 -3 19 -12 6z"/>
<path d="M1795 340 c3 -5 8 -10 11 -10 2 0 4 5 4 10 0 6 -5 10 -11 10 -5 0 -7
-4 -4 -10z"/>
<path d="M1830 321 c0 -7 -7 -11 -14 -8 -10 4 -13 1 -9 -9 5 -14 7 -14 21 0 9
9 13 19 9 22 -4 4 -7 2 -7 -5z"/>
<path d="M2290 248 c-10 -21 -10 -21 3 -6 11 14 16 15 27 5 12 -10 12 -9 1 6
-17 22 -18 22 -31 -5z"/>
<path d="M1321 207 c-8 -10 -7 -14 2 -14 8 0 14 6 14 14 0 7 -1 13 -2 13 -2 0
-8 -6 -14 -13z"/>
<path d="M1350 199 c0 -5 5 -7 10 -4 6 3 10 8 10 11 0 2 -4 4 -10 4 -5 0 -10
-5 -10 -11z"/>
<path d="M1438 203 c7 -3 16 -2 19 1 4 3 -2 6 -13 5 -11 0 -14 -3 -6 -6z"/>
<path d="M1375 180 c-3 -5 -1 -10 4 -10 6 0 11 5 11 10 0 6 -2 10 -4 10 -3 0
-8 -4 -11 -10z"/>
<path d="M1174 128 c-3 -4 4 -20 15 -34 14 -18 21 -22 21 -11 0 8 -7 17 -15
21 -8 3 -15 11 -15 17 0 8 4 9 13 0 10 -8 14 -7 14 2 0 15 -25 19 -33 5z"/>
<path d="M1773 127 c0 -8 6 -14 13 -14 7 0 10 6 7 14 -7 17 -20 17 -20 0z"/>
<path d="M1666 92 c-3 -5 1 -9 9 -9 8 0 12 4 9 9 -3 4 -7 8 -9 8 -2 0 -6 -4
-9 -8z"/>
<path d="M2015 80 c3 -5 8 -10 11 -10 2 0 4 5 4 10 0 6 -5 10 -11 10 -5 0 -7
-4 -4 -10z"/>
<path d="M2410 6 c7 -7 13 -7 20 0 6 6 3 10 -10 10 -13 0 -16 -4 -10 -10z"/>
</g>
</svg>
