<svg id="Layer_1" data-name="Layer 1" xmlns="http://www.w3.org/2000/svg" viewBox="0 0 885.52 168.36"><defs><style>.cls-1{fill:#00247d;}.cls-2{fill:#cf142b;}</style></defs><title>study_academy_goriz_color</title><path class="cls-1" d="M502.42,125.1H498l-8.26-21.36H457.85L449.4,125.1H445L471.87,59h4.27ZM476.33,69.75c-.84-2.14-1.58-4.74-2.41-7-.84,2.23-1.58,4.46-2.51,6.69l-12.35,30.92H488.4Z"/><path class="cls-1" d="M535.2,126.58c-18.2,0-30.27-13.74-30.27-34.36,0-20.8,12.35-34.82,30.74-34.82,12.72,0,25.63,8,27.11,21.45h-3.9c-2.32-11-11.33-17.83-23.4-17.83-15.88,0-26.56,12.54-26.56,31.11s10.49,30.92,26.37,30.92c14.49,0,23.12-10.21,24.7-23.59h3.81C562.6,115.62,551,126.58,535.2,126.58Z"/><path class="cls-1" d="M622.86,125.1H618.4l-8.26-21.36H578.29l-8.45,21.36h-4.36L592.31,59h4.27ZM596.77,69.75c-.84-2.14-1.58-4.74-2.41-7-.84,2.23-1.58,4.46-2.51,6.69l-12.35,30.92h29.34Z"/><path class="cls-1" d="M650,59c19.87,0,30.09,12.44,30.09,32,0,19.31-8.73,34.08-30,34.08H627.69V59Zm-18.29,62.59h17c20.24,0,27.39-12.16,27.39-30.27,0-17.09-8-28.79-26.28-28.79H631.68Z"/><path class="cls-1" d="M733.64,62.51H693.06V89h38.07V92.5H693.06v29.06h41v3.53H689.07V59h44.57Z"/><path class="cls-1" d="M805,125.1h-3.9V75.6c0-4.36.19-8.54.56-12.91-1.11,2.51-1.86,5.29-3,7.8l-23.31,54.6h-3.9l-23.4-54c-1.21-2.69-2-5.48-3.06-8.26.19,4.27.46,8.45.46,12.72V125.1h-3.9V59h5.57c5.66,13.28,21.08,49,21.08,49,3.25,7.61,5.2,12.91,5.2,12.91s1.67-4.74,4.64-11.61c0,0,15.23-35.75,21.45-50.33H805Z"/><path class="cls-1" d="M839.4,97.52V125.1h-4V97.52L808.76,59h4.83l21,30.46c1,1.49,2,3.06,3,4.64.93-1.49,1.76-3,2.79-4.46L861.59,59h4.55Z"/><path class="cls-2" d="M61.13,105.17c0-4.73-5.59-5.79-12.35-6.17-14.66-1.06-24.31-6.08-24.5-20.74-.58-29.13,51.89-29.13,51.51,0H59.39c0-9-18.13-8.2-18.71-.19-.39,5.11,4.63,6.17,10.71,6.85,13.41,1.45,26.52,3.47,26.52,20.35,0,28.36-55,28.84-54.59-.87H40C40,113,61.13,113.08,61.13,105.17Z"/><path class="cls-2" d="M83.89,73V57.52H134V73H117.55V125H100.48V73Z"/><path class="cls-2" d="M181.11,102.28V57.52H197.6v45c0,14.85-12.83,23.44-26.72,23.44s-26.81-8.58-26.81-23.44v-45h16.49v44.75c0,5.5,5.3,8.2,10.32,8.2S181.11,107.78,181.11,102.28Z"/><path class="cls-2" d="M239.85,125H214.38V57.52h25.46C283.83,57.72,283.83,124.85,239.85,125Zm-8.2-15.72h8.2c21.51,0,21.51-36.07,0-36.07h-8.2Z"/><path class="cls-2" d="M311.71,125H294.64V96.68L272,60.13v-2.6h18.62L302.84,80h.68l12.25-22.47h18.71v2.6L311.71,96.68Z"/><path class="cls-1" d="M366.59,124.49c6.36.52,12.72,1.23,19.09,1.48,3.43.13,3.14,1.53,2,3.74H380.4c-8.25-.73-16.53-.69-24.8-.77-2.22,0-4.62.41-6.48-1.42v-9.46a14.72,14.72,0,0,1,7.31-1.54c19,0,38,.6,56.95,1.16,2.47.07,4.62-1.26,6.89-2a3.67,3.67,0,0,1,3.67.27c3.7,2.49,7.52,4.81,11.28,7.22.92.59,2.26,1.41,1.62,2.47-.88,1.44-1.85-.14-2.62-.62-3.47-2.19-6.91-4.42-10.28-6.77a3.37,3.37,0,0,0-4-.23c-6.56,3.3-13.24,6.36-19.78,9.7A12.61,12.61,0,0,1,394,129c-1.18,0-2.05,0-2.21-1.59a1.9,1.9,0,0,1,1.55-2.35,77.51,77.51,0,0,0,12-5H389c-.24,0-.63-.08-.71,0-3.28,5-8.4,1.95-12.61,2.75-3.4.65-7,.29-10.5.38-1.55,1-3.09.63-4.65.07C362.44,124.16,364.64,123.7,366.59,124.49Z"/><path class="cls-1" d="M429.05,129.06c-5.78-5.23-12.06-7.71-19.65-2.69l-.11-1.22a72,72,0,0,0,8.06-3.91c3.55-2.27,5.86.3,8.51,1.67,3,1.55,6,3.18,8.91,4.82.76.43,2,.6,1.65,2h-2.91C432.12,128.79,430.46,129.82,429.05,129.06Z"/><path class="cls-1" d="M429.05,129.06c1.49.19,3.14-.72,4.46.65h-4.36A2.24,2.24,0,0,0,429.05,129.06Z"/><path class="cls-1" d="M395.75,88.86c7.51-.17,15,.38,22.48.85a11.6,11.6,0,0,1,3.83.91c.91.4,2.69.73,2.4,1.76-.41,1.44-2,1.36-3.43,1-.57-.16-1.17-.27-1.75-.4a1.18,1.18,0,0,1-.17.32c-1.15,1.14,1.62,4.2-1.62,4-2.87-.16-.69-3-1.59-4.35a1.73,1.73,0,0,0-1.23-.47c-.8,0-.91.55-.89,1.22,0,1.32,0,2.64,0,4-2.47.2-3.05-1.06-2.87-3.11.1-1.18.28-2.55-1.68-2.42s-1.07,1.47-1.24,2.42.92,2.54-1.38,2.5c-2.11,0-1.57-1.49-1.47-2.52.24-2.4-1.15-2.5-2.91-2.39-1.5.09-3.4-.53-3,2.18.19,1.2,0,2.06-1.62,2.07-1.82,0-2-.91-1.76-2.29.3-1.67-.79-2-1.91-1.62-1.38.44-3.59-1.17-4.08,1.49-.2,1.09.42,2.48-1.65,2.42-1.71,0-1.62-1.08-1.58-2.18.07-1.78-1.17-1.48-2.23-1.44a35.17,35.17,0,0,0-10.25,2c-2.16.74-4.79,1.76-5.61-2-.3-1.36-1.52-.79-2.43-.8-1.63,0-1.84,1.36-2.31,2.4-.61,1.34.66,1.34,1.36,1.51,2.7.64-.74,1.62,0,2.2,15.08,1.14,30.09.52,45.06,2.49-8.14.21-15.16,3.24-21.73,7.56l.1.09a7.21,7.21,0,0,0-3.28-3.58,5.43,5.43,0,0,0-2.68,3,11.12,11.12,0,0,0-.19,2.49,5.48,5.48,0,0,1-.89,3.12c-.9,1.37-2.51,1.2-3.82,1-1.64-.27-1.13-1.67-1.13-2.63,0-1.33,0-2.7.11-4,.12-1.87-2.42-3.45-2.42-3.45s-2.62,1.6-2.73,3.39c-.09,1.45-.24,2.9-.19,4.35.06,1.78-.09,2.87-2.46,2.87s-2.39-1.24-2.33-2.93c.07-1.94,0-3.88,0-5.81,0-1.36-2-2.46-2-2.46s-2.18,1-2.2,2.49c0,2.06-.05,4.12,0,6.18.05,1.52-.46,2.15-2.09,2.13s-1.78-.75-1.84-2c-.15-3-.29-6-.6-9.05-.21-2-.26-4.24-2.95-4.79a1.3,1.3,0,0,1-.64-.28c-.62-.61-.5-1.84-.19-2,3.64-1.47-2.94-6.89,2.89-7.38C369.92,87.54,382.84,89,395.75,88.86Z"/><path class="cls-1" d="M375.18,69.94c3.37-6.33,8.1-11.32,13.39-13.84A111.6,111.6,0,0,0,384,78.48c-.27,2.49-2.31.91-3.48,1.13-1.88.35-1.31-1-1.09-2.08a13.14,13.14,0,0,0,0-5.47,4.69,4.69,0,0,0-3.46,4.71c-.11,2.58-1.7,3.18-3.89,2.64-2.4-.59-.8-2.35-.78-3.52s.5-2.05.15-3.14c-4.06,1.21-2,6.61-5.7,8.35,19.09.3,38.08.74,57,3.61-.85,1.95-2.38,1.61-3.87,1.48-12.88-1.17-25.79-2-38.73-1.92-2.3,0-4.6.34-6.88.19s-3.92.61-4.53,3a10.57,10.57,0,0,1-8.57,0,4.44,4.44,0,0,0-1.11-2.9c-.85-1-1-2.82.7-3.21,3.14-.7,2.79-3.23,3.2-5.32,2.26-11.44,8.64-19.42,19.59-23.63a1,1,0,0,1,.06,1.6c-4.11,4.05-8,8.22-8.12,14.52C374.11,69.9,374.16,70,375.18,69.94Z"/><path class="cls-1" d="M382.57,54l-.06-1.6c.08-1.08-.27-2.89.43-3.39a8,8,0,0,1,3.19-.87c.35-.06,1.15,0,1.41-.42a4,4,0,0,0,.22-1.2,11.15,11.15,0,0,0,0-4.31,2.21,2.21,0,0,0-.19-.64c-.09-.13-.41-.24-.55-.33a2.49,2.49,0,0,1-.56-.41,5,5,0,0,1-.41-.53c-1.13-1.72.59-2.27,2.3-2.93,1.06-.41,2.37-.28,3-1.49a.59.59,0,0,1,.75,0c1.34,1.48,3.25,1.07,4.91,1.52,1.27.34,2.36,1.33,2.07,2.54s-1.63.43-2.53.37c-1.79-.12-3.44-1.3-5.52-.58.24,1,.84,2.18.69,3.21-.29,2,.14,3.4,1.1,4.18.63.51,1.49.51,3.61.76a21,21,0,0,1,2.58.37c.36.11,1.13.29,1.15.59a3.49,3.49,0,0,0,1.32,2.5q.3.23.19.45t-.21.21C394.79,49.14,388.38,48.65,382.57,54Z"/><path class="cls-1" d="M392.7,57.25c4.44,6.22,4.36,13.54,5.12,20.66.06.6.43,1.62-.73,1.63-.87,0-2.07.37-2.31-1.06a19.77,19.77,0,0,1-.34-2.87A115.58,115.58,0,0,0,392.7,57.25Z"/><path class="cls-1" d="M400.64,110c-.49,1.67,1.38,4.65-2.9,4.52-4.51-.13-2.38-3.17-2.76-5.06-.46-2.28,1.14-4.29,2.84-4.26C400.13,105.27,401.61,107.2,400.64,110Z"/><path class="cls-1" d="M392.11,35.89l-.75,0c-1.93-4.84-2.05-9.53,1.2-13.92.55-.75,1.15-.83,1.62.08.82,1.6,1.19,3.16-.44,4.56-2,1.67-1.68,3.12.4,4.52,1.46,1,1.77,2.34-.39,2.5C391.84,33.75,394.07,36.21,392.11,35.89Z"/><path class="cls-1" d="M410.53,104.89c1.19,2.65,1.11,5,1.17,7.42,0,1.61-.29,2.57-2.13,2.29-1.13-.17-3,.57-3.24-.57-.3-1.76-.45-3.87.81-5.5C408.06,107.32,409.22,106.28,410.53,104.89Z"/><path class="cls-1" d="M419.07,111.12c-.39.95.76,2.9-.8,3.73-.78.42-2.8.28-3.24-.78a7.91,7.91,0,0,1,0-5.64c.45-1.19,1.44-3,2.88-2.65,1,.22,1.49,2,1.39,3.45C419.27,109.72,419.19,110.2,419.07,111.12Z"/><path class="cls-1" d="M360.12,87.45h8.57c.82,1.39,2.17.74,3.27.75,6.64.07,13.29,0,19.93,0,1.32,0,2.67-.21,3.86.61L357,88.8C357.73,87.61,359.53,89,360.12,87.45Z"/><path class="cls-1" d="M421.75,107.77q0-2.53,0-5.05c0-.79-.39-1.84.84-2,.91-.11,2.12-.48,2.71.37a1.92,1.92,0,0,1-.33,2.56c-2.27,2.37-.54,5.53-1.38,8.2-.27.88.62,2.61-1.09,2.5s-.74-1.68-.8-2.62c-.08-1.32,0-2.65,0-4Z"/><path class="cls-1" d="M390.25,71.43c1.94,2.27,2.52,4.89,1.16,7.48-.25.48-3.89-.08-3.91-.33C387.28,75.89,387.15,73,390.25,71.43Z"/><path class="cls-1" d="M399.27,76.42c.07-1.35-.29-3.54,1.49-3.37,1.58.16,2.34,2.22,2.16,4.06-.1,1,.65,2.45-1.53,2.47C398.77,79.62,399.23,78,399.27,76.42Z"/><path class="cls-1" d="M408.1,73a5.83,5.83,0,0,1,2.18,5.53c-.09.72.42,1.85-1.06,1.72-.85-.08-1.86-.19-1.85-1.27C407.39,77,406.78,75,408.1,73Z"/><path class="cls-1" d="M417.5,79.05c-.12.85.46,2-1,1.88-3.08-.24-1.54-3.07-2.44-4.56-.49-.81.2-2.42,1-2.12C417.16,75,417,77.36,417.5,79.05Z"/><path class="cls-1" d="M388.53,108.09c0,1.45-.07,2.89,0,4.33,0,.87-.2,1.38-1.16,1.38s-1.35-.35-1.28-1.29c.14-1.88-.78-4.37,2.57-4.34Z"/><path class="cls-1" d="M405.81,53.34a23,23,0,0,0-4.33-2,1.49,1.49,0,0,0,0,.66,31.8,31.8,0,0,1,3,2c9.59,6,15.65,14.23,16.33,25.83.18,3.07,2.29,1.52,3.26,1.75C421.43,70,418.47,58.49,405.81,53.34Z"/><path class="cls-1" d="M375.18,69.94c-.07.68-.63,1.28-1.06.82a1.67,1.67,0,0,1,.32-2.25Z"/></svg>